<?xml version="1.0" encoding="utf-8"?>
<!-- Generator: Adobe Illustrator 24.3.0, SVG Export Plug-In . SVG Version: 6.00 Build 0)  -->
<svg version="1.1" id="Layer_1" xmlns="http://www.w3.org/2000/svg" xmlns:xlink="http://www.w3.org/1999/xlink" x="0px" y="0px"
	 viewBox="0 0 311.1 281.8" enable-background="new 0 0 311.1 281.8" xml:space="preserve">
<g>
	<g>
		<path fill="#FEFEFE" d="M318.8,288.8c-106.3,0-212.5,0-318.8,0C0,192.5,0,96.3,0,0c106.3,0,212.5,0,318.8,0
			C318.8,96.3,318.8,192.5,318.8,288.8z M273.1,144c-0.7-32.9-14-62.2-40.7-85.1c-20.3-17.3-44.1-26.4-70.8-26.9
			c-34-0.7-63,11.4-86.4,36.1c-19.5,20.5-29.9,45.3-30.9,73.5c-1.2,36.2,11.9,66.8,39,90.8c20.9,18.5,45.7,28,73.6,28.2
			c35.8,0.3,65.7-13.3,89-40.3C264.1,199.1,272.8,174.2,273.1,144z"/>
		<path fill="#244339" d="M273.1,144c-0.3,30.2-9,55.1-27.3,76.3c-23.3,27.1-53.3,40.7-89,40.3c-27.9-0.2-52.7-9.7-73.6-28.2
			c-27.2-24.1-40.3-54.6-39-90.8c1-28.2,11.4-53,30.9-73.5c23.4-24.7,52.4-36.7,86.4-36.1c26.7,0.5,50.5,9.6,70.8,26.9
			C259.2,81.7,272.5,111.1,273.1,144z M212.4,109.8c-0.4-0.1-0.7-0.2-1.1-0.2c-3.2,0-6.3-0.1-9.5-0.1c0.2-1.2,0.4-2.4,0.7-3.8
			c-1.7,0.4-3.2,0.7-4.7,1c-0.5,0.1-0.7,0.2-0.7,0.8c0,0.7,0,1.5-0.4,2c-0.4,0.4-1.3,0.3-1.9,0.4c0,0,0,0-0.1,0.1
			c0,0.1,0,0.2-0.1,0.3c0.6,0.1,1.3,0.1,1.9,0.2c-0.3,1.4-0.5,2.8-0.8,4.1c-0.2,1.4-0.4,2.8-0.7,4.1c-0.8,3.9,2.5,5.2,5,4.6
			c2-0.4,3.2-1.9,4.2-3.6c-0.2-0.1-0.4-0.2-0.5-0.3c-0.5,0.7-1,1.3-1.5,2c-0.5,0.6-1.2,0.7-1.8,0.4c-0.3-0.2-0.4-0.9-0.6-1.3
			c-0.1-0.2-0.1-0.5,0-0.8c0.6-3.1,1.3-6.2,1.9-9.4c1.1,0,2.2,0,3.2,0c0.7,0,1.3,0.1,1.9,0.1c-0.5,3-1,5.9-1.6,8.9
			c-0.4,1.8,0.5,3.8,2.6,4.1c1.7,0.2,4-0.4,4.8-2.6c-0.2,0.1-0.5,0.2-0.6,0.3c-0.3,0.3-0.6,0.7-0.9,0.9c-0.7,0.5-1.2,0.3-1.1-0.6
			c0-0.4,0.1-0.7,0.2-1.1C211,116.7,211.7,113.2,212.4,109.8z M151.6,109.8c-0.2-0.1-0.3-0.2-0.5-0.2c-2,0-4,0-6,0
			c-0.2,0-0.3,0.1-0.5,0.2c-0.2,0.5-0.1,0.7,0.5,0.7c0.4,0,0.8,0,1.4,0c-0.7,4.4-1.5,8.6-2.2,12.7c1.8,0,3.6,0,5.3,0
			c0.2-1.6,0.4-3.1,0.6-4.5c0.3-1.9,0.8-3.8,1.9-5.4c0.5-0.7,1.1-1.3,2.1-1.4c0,0.5-0.1,1.1,0,1.5c0.1,0.4,0.4,1,0.8,1
			c0.8,0.1,1.6,0.1,2.4-0.1c1-0.2,1.5-1.1,1.6-2.3c0.1-1.1-0.4-1.9-1.4-2.3c-1.7-0.8-3.2-0.2-4.4,0.9c-1,1-1.8,2.2-2.9,3.5
			C150.9,112.6,151.3,111.2,151.6,109.8z M116.3,68.3c-0.2-0.1-0.5-0.2-0.7-0.2c-1.9,0-3.8,0-5.6,0c-0.2,0-0.5,0.1-0.7,0.2
			c-0.1,0.2-0.2,0.4-0.3,0.8c0.8,0,1.4,0,2,0c-0.1,0.5-0.1,0.9-0.2,1.3c-1,4.9-2,9.8-2.9,14.7c-0.2,1.1-0.2,2.3,0.7,3.3
			c1.8,2,5.9,1.4,7.1-1c0.1-0.1-0.1-0.4-0.1-0.7c-0.5,0.6-0.8,1-1.2,1.4c-0.3,0.2-0.8,0.3-1.2,0.4c-0.1-0.4-0.4-0.9-0.4-1.3
			c0.6-3.3,1.2-6.7,1.8-10C115.2,74.2,115.7,71.3,116.3,68.3z M174.5,109.6c-1.3,0-2.7,0-4,0c-0.3,0-0.5,0.1-0.8,0.2
			c-0.1,0.4-0.1,0.7-0.2,1.1c-0.5-0.4-1-0.9-1.5-1.2c-2-0.9-5.2,0-6.5,1.7c-2.2,2.7-2.7,5.9-1.9,9.3c0.3,1.1,1,1.9,2,2.3
			c2,0.9,4.2,0.4,5.7-1.3c0.4-0.5,0.8-1.1,1.2-1.7c0.1,2.9,1.6,3.3,3.7,3.4c1.3,0,3.5-1.2,3.5-2.9c-0.4,0.4-0.5,0.8-0.8,0.9
			c-0.5,0.3-1,0.4-1.6,0.6c-0.1-0.5-0.4-1-0.3-1.5c0.6-3.5,1.3-7,2-10.5C175,109.6,174.8,109.6,174.5,109.6z M117.2,109.8
			c-0.2-0.1-0.4-0.2-0.6-0.2c-2,0-4.1,0-6.1,0c-0.2,0-0.3,0.1-0.5,0.2c-0.1,0.4,0.1,0.6,0.5,0.5c0.4,0,0.8,0,1.2,0
			c0,0.2,0.1,0.3,0,0.4c-0.6,3-1.2,5.9-1.7,8.9c-0.3,1.8,0.5,3.2,2.2,3.7c1.6,0.5,3.9-0.3,5-1.7c0.5-0.6,0.9-1.3,1.4-2.1
			c0,0.6,0,0.9,0,1.3c0.2,1,0.5,1.9,1.6,2.3c2,0.8,4.6,0.4,5.9-2.1c-0.3,0-0.5,0-0.7,0.2c-0.4,0.3-0.8,0.8-1.3,1
			c-0.7,0.3-1-0.3-0.9-0.9c0.4-2.4,0.8-4.8,1.2-7.2c0.2-1.4,0.5-2.8,0.8-4.3c-1.9,0.1-3.7,0.2-5.4,0.3c-0.4,2.1-0.6,4-1,6
			c-0.4,1.8-0.9,3.5-2,5c-0.4,0.5-0.9,1-1.4,0.5c-0.3-0.2-0.4-1-0.3-1.4C115.7,116.7,116.5,113.2,117.2,109.8z M221.3,109.7
			c-0.3-0.1-0.5-0.2-0.8-0.2c-1.8,0-3.6,0-5.4,0c-0.3,0-0.5,0.1-0.8,0.2c-0.3,0.5-0.1,0.5,0.3,0.5c0.5,0,1,0,1.6,0
			c-0.8,4.4-1.5,8.6-2.3,13c1.8-0.1,3.6-0.3,5.4-0.4c0.3-2.1,0.6-4.1,1-6.1c0.4-2,1-3.9,2.5-5.4c0.3-0.3,1-0.4,1.5-0.5
			c0,0.4,0.2,0.9,0.1,1.3c-0.4,1.8-1,3.5-1.4,5.3c-0.3,1.3-0.8,2.5-0.2,3.8c0.5,1.2,1.7,2,3.7,2c1.5,0,3.4-1.2,3.8-2.3
			c0-0.1-0.1-0.4-0.2-0.5c-0.6,0.5-1,1-1.5,1.4c-0.6,0.4-1,0.1-1-0.6c0-0.2,0-0.4,0.1-0.6c0.5-2.5,1.2-5,1.6-7.5
			c0.4-2-0.4-3.8-3-3.9c-2.4,0-4,1.2-5.1,3.2c-0.2,0.4-0.4,0.8-0.7,1.4C220.8,112.4,221.1,111.1,221.3,109.7z M183.9,109.7
			c-0.2-0.1-0.3-0.2-0.5-0.2c-2,0-4.1,0-6.1,0c-0.2,0-0.4,0.1-0.6,0.2c0.2,0.2,0.4,0.4,0.6,0.5c0.4,0.1,0.9,0,1.5,0
			c-0.8,4.4-1.5,8.6-2.3,12.8c1.6,0,3.2,0,4.8,0c0.2,0,0.5-0.4,0.6-0.6c0.3-1.8,0.5-3.7,0.9-5.5c0.4-2,1.1-3.9,2.5-5.4
			c0.3-0.3,1-0.4,1.5-0.6c0.1,0.5,0.2,1,0.1,1.4c-0.5,2.1-1.1,4.1-1.6,6.1c-0.4,1.6-0.5,3.2,1,4.2c2,1.4,5,0.8,6.4-1.5
			c0.1-0.1,0-0.4-0.1-0.7c-0.4,0.5-0.7,0.9-1.1,1.1c-0.4,0.2-0.9,0.3-1.3,0.4c-0.1-0.4-0.3-0.8-0.2-1.2c0.5-2.5,1.1-4.9,1.7-7.4
			c0.6-2.8-1.3-4.4-4-3.9c-2.1,0.4-3.3,1.8-4.3,3.6c-0.1,0-0.1-0.1-0.2-0.1C183.5,111.8,183.7,110.8,183.9,109.7z M134.5,76
			c-0.1,0.4,0.1,0.6,0.5,0.5c0.5,0,0.9,0,1.5,0c-0.8,4.4-1.5,8.6-2.3,12.9c1.7-0.1,3.6-0.2,5.3-0.3c0.4-2.5,0.8-4.9,1.3-7.2
			c0.4-1.6,1-3.2,2.3-4.3c0.3-0.3,0.9-0.2,1.3-0.3c0,0.4,0.2,0.8,0.1,1.2c-0.5,2.1-1.1,4.1-1.6,6.2c-0.3,1.3-0.4,2.5,0.4,3.7
			c1.3,1.8,5.6,1.8,7-0.9c0.1-0.2,0-0.4,0-0.3c-0.5,0.4-1,0.8-1.5,1.1c-0.2,0.1-0.6,0.2-0.8,0.1c-0.2-0.1-0.3-0.5-0.3-0.7
			c0-0.2,0-0.4,0.1-0.6c0.6-2.5,1.1-5,1.7-7.4c0.4-2-0.6-3.7-2.5-3.9c-2.2-0.3-4.2,0.8-5.3,2.7c-0.2,0.4-0.4,0.7-0.6,1.1
			c0,0-0.1-0.1-0.1-0.1c0.3-1.1,0.5-2.3,0.8-3.4c-0.2-0.1-0.4-0.3-0.5-0.3c-2,0-4.1,0-6.1,0C134.9,75.8,134.7,76,134.5,76z M92,69.7
			c0.1,1,1.1,0.1,1.5,0.7c-1,6.1-2,12.2-3,18.4c-0.4,0-0.8-0.1-1,0c-0.2,0.1-0.3,0.4-0.5,0.6c0.2,0.1,0.4,0.2,0.7,0.2
			c2.9,0,5.8,0,8.7,0c0.2,0,0.4-0.2,0.7-0.2c0.2-0.5-0.1-0.6-0.5-0.6c-0.9,0-1.9,0-2.8,0c0.4-2.6,0.9-5,1.3-7.4c1.1-0.1,2-0.1,3-0.2
			c3-0.3,5.8-1.6,6.7-4.8c0.8-3,0-5.4-3.2-6.3c-0.6-0.2-1.3-0.3-2-0.4c-0.2-0.1-0.4-0.2-0.6-0.2c-2.7,0-5.5,0-8.2,0
			C92.4,69.5,92.2,69.6,92,69.7z M187.5,240.8c0.7-3.4,1.4-6.9,2-10.3c1.2-5.8,2.3-11.7,3.5-17.5c1.1-5.8,2.3-11.5,3.4-17.3
			c0.9-4.4,1.8-8.7,2.6-13.1c0.3-1.6,0.5-3.2,0.8-4.7c-1,0.2-2,0.3-3,0.5c-4.2,0.7-8.3,1.4-12.5,2.1c-3.5,0.5-7.1,0.9-10.7,1.3
			c-2.8,0.3-5.7,0.4-8.5,0.6c-2.9,0-5.9,0-8.8,0c-1.5-0.1-3.1,0-4.6-0.2c-3.2-0.3-6.4-0.7-9.6-1.1c-3.5-0.5-7-1-10.5-1.5
			c-3.2-0.5-6.4-1.1-9.8-1.7c0,0.3,0,0.7,0.1,0.9c0.5,2.4,0.9,4.9,1.4,7.3c1.1,5.6,2.2,11.3,3.4,16.9c1.2,5.8,2.3,11.7,3.5,17.5
			c0.7,3.6,1.4,7.1,2.1,10.7c0.6,3.2,1.2,6.3,1.9,9.5c0.3,0.1,0.6,0.2,0.9,0.2c5.8,0,11.6,0,17.4,0c0.3,0,0.6-0.1,0.9-0.2
			c0-5.4,0-10.7,0-16.1c0-0.3,0.1-0.6,0.2-1c0.3,0.1,0.7,0.2,1,0.2c4.2,0,8.3,0,12.5,0c0.3,0,0.7,0,1.1,0c0,0.5,0,0.9,0,1.2
			c0,4.8,0,9.6,0,14.4c0,0.4,0.1,0.7,0.2,1.1c0,0,0.1,0.1,0,0.1c0.3,0.1,0.6,0.2,0.9,0.2c5.8,0,11.6,0,17.3,0
			C186.9,240.9,187.2,240.8,187.5,240.8z M161.8,177.9c0.4,0,0.8,0.1,1.1,0c1.6-0.3,3.3-0.6,4.9-0.9c5.9-1.3,11.5-3.5,16.4-7.1
			c3.7-2.7,6.7-6,9.1-10c2.6-4.5,3.9-9.3,4.5-14.4c0.1-0.9,0-1.9,0-2.9C175.8,144.9,164.5,162.1,161.8,177.9z M124.4,149.3
			c1.1,3.1,2,6.1,3.1,9c1.5,3.8,3.7,7.3,6.5,10.3c3.5,3.8,7.7,6.4,12.6,8c3.7,1.2,7.4,1.3,11.2,1.2c0.6,0,0.9-0.2,0.7-0.9
			c-1.4-5.5-3.7-10.6-7.4-15c-4.3-5-9.7-8.3-15.9-10.5C131.8,150.3,128.4,149.6,124.4,149.3z M100.2,123c0.2-0.2,0.3-0.3,0.4-0.3
			c3.1-0.7,5.1-2.8,6.4-5.5c1.3-2.7,1.7-5.6,1.2-8.6c-0.3-2-1.1-3.7-3.1-4.7c-1.7-0.8-3.5-1-5.4-0.7c-3.8,0.5-6.5,2.5-8.1,6
			c-1.2,2.7-1.8,5.4-1.3,8.4c0.5,3.1,2,4.8,4.9,5.5c1.8,0.4,2.8,1.2,3.5,2.8c0.7,1.7,1.5,3.2,3.4,4c2.4,1,5.1,0.3,6.2-1.5
			c0.1-0.2,0.1-0.5,0.1-0.8c-0.4,0.1-0.5,0.3-0.6,0.4c-1.2,1.4-2.1,1.2-3-0.4c-0.3-0.6-0.7-1.3-1-1.9c-0.5-1.2-1.4-1.8-2.7-2.1
			C100.8,123.4,100.6,123.2,100.2,123z M199.6,76.5c-0.2,1.1-0.5,2-0.6,3c-0.8,4.3-1.5,8.6-2.3,12.9c-0.2,1.1-0.3,2.4-1.4,3.1
			c-0.3,0.2-1.1,0.3-1.4,0.1c-0.3-0.2-0.4-0.9-0.4-1.3c0-0.5,0.3-0.9,0.9-0.8c0.2,0,0.5-0.3,0.6-0.5c0.4-0.8,0.2-1.5-0.4-2.1
			c-0.9-0.9-2.3-0.9-3.4,0.1c-1.1,0.9-1.3,2.7-0.5,3.8c0.8,1,1.9,1.4,3.1,1.5c2.2,0.2,4.3-0.2,6-1.7c1.7-1.5,2.3-3.6,2.8-5.7
			c0.7-3.9,1.4-7.8,2.1-11.6c0.1-0.5,0.3-0.7,0.8-0.7c0.7,0,1.4,0,2.1,0c0.2,0,0.5-0.2,0.7-0.3c0-0.1-0.1-0.2-0.1-0.2
			c-1.1,0-2.1,0-3.2,0c0.1-0.7,0.1-1.2,0.2-1.8c0.4-1.6,0.8-3.3,1.3-4.9c0.2-0.7,0.8-1.2,1.6-1.1c0.6,0,1.1,0.2,1,0.9
			c0,0.6,0.1,1.3-0.9,1.3c-0.3,0-0.8,0.4-0.9,0.8c-0.4,1.3,1,2.7,2.3,2.5c1.2-0.2,2.1-1,2.4-2.3c0.2-1.1-0.2-2.1-1.1-2.8
			c-1.5-1.1-3.1-1.2-4.9-0.9c-2.4,0.4-4.2,1.7-5.2,3.9c-0.6,1.4-1,2.8-1.5,4.3c-0.6,0.1-1.3,0.1-1.9,0.2c0,0.1,0,0.2,0,0.4
			C198.2,76.5,198.8,76.5,199.6,76.5z M142.7,109.7c-1.7,0-3.5,0-5.1,0c-0.1,0.5-0.2,0.9-0.3,1.1c-0.4-0.3-0.7-0.7-1.2-1
			c-2.1-1.2-5.7-0.1-7,1.7c-1.8,2.4-2.4,5.2-1.9,8.1c0.2,1.6,0.9,2.8,2.6,3.3c1.8,0.6,3.5,0.4,4.9-0.9c0.6-0.6,1.1-1.4,1.6-2.1
			c0,2.8,1.9,3.3,3.9,3.2c1.6-0.1,3.3-1.5,3.1-2.8c-0.3,0.4-0.6,0.6-0.8,0.9c-0.4,0.4-1,1-1.5,0.5c-0.3-0.3-0.4-1-0.3-1.5
			C141.3,116.9,142,113.3,142.7,109.7z M126.1,86.7c0.2,1.8,1,2.6,2.6,2.9c1.8,0.3,3.9-0.6,4.5-2c0.1-0.2,0-0.4,0-0.6
			c-0.1,0.1-0.3,0.1-0.4,0.2c-0.2,0.2-0.4,0.6-0.6,0.7c-0.4,0.2-0.8,0.3-1.2,0.5c-0.1-0.4-0.4-0.8-0.4-1.2c0.2-1.5,0.4-3,0.7-4.5
			c0.4-2.3,0.9-4.5,1.4-6.7c-0.9,0-1.7,0-2.6,0c-0.9,0-1.7,0-2.5,0c-0.1,0.4-0.3,0.8-0.4,1.2c-0.5-0.4-0.9-0.9-1.4-1.2
			c-2-0.9-5.4,0.1-6.7,1.8c-1.9,2.5-2.3,5.2-2,8.2c0.2,1.5,0.9,2.8,2.3,3.2c1.8,0.6,3.5,0.6,5.1-0.7
			C124.9,88.1,125.4,87.5,126.1,86.7z M158.7,158.5c1-9.1-5.7-16.2-12.7-18.1c0.1,1.1,0.2,2.2,0.2,3.2c0.2,3.1,1,6,2.7,8.7
			C151.3,155.8,154.7,157.7,158.7,158.5z M195.8,81.5c0-3.5-1.3-5.3-3.7-5.6c-1.3-0.2-2.8-0.2-4.1,0c-2.1,0.3-3.7,1.5-4.9,3.3
			c-1,1.4-1.2,3-1.3,4.6c-0.1,1.7,0.1,3.3,1.5,4.5c0.9,0.8,2.1,1.1,3.3,1.2c2.8,0.2,5.4-0.2,7.3-2.4
			C195.3,85.4,195.7,83.2,195.8,81.5z M166.3,87.2c0.5-1.3,0.3-2.2-0.6-2.7c-0.8-0.5-2.1-0.2-2.9,0.7c-1.2,1.4-0.5,3.5,1.5,4.1
			c3.1,0.9,6.2,0.9,8.9-1.1c2.1-1.5,2.5-5.5-0.5-6.6c-1.3-0.5-2.5-1.1-3.7-1.7c-0.8-0.4-0.9-1.2-0.7-1.9c0.4-1.4,3.3-2.1,4.3-1.1
			c0.2,0.2,0.3,0.6,0.3,0.9c0,0.1-0.3,0.4-0.4,0.4c-0.9-0.1-0.9,0.5-1,1.1c-0.1,0.6,0.2,1.1,0.8,1.3c1.3,0.6,2.8,0.2,3.3-1
			c0.5-1.2-0.2-2.8-1.5-3.2c-2.8-0.8-5.5-0.8-8.1,0.7c-1.4,0.8-2.1,2.1-2,3.7c0.1,1.5,0.8,2.5,2.2,3.1c1,0.4,2.1,0.8,3.1,1.3
			c0.8,0.4,1.1,1,1,1.8c0,0.9-0.4,1.6-1.3,1.8c-1,0.2-2,0.2-3,0.1c-0.8-0.1-1.1-0.7-0.9-1.6C165.6,87.2,165.9,87.2,166.3,87.2z
			 M236.6,116.7c0.4,0,0.7,0,0.9,0c1.8-0.1,3.5-0.3,5.1-1.2c1.2-0.6,1.9-1.8,1.8-3.1c-0.1-1.4-0.7-2.1-2.2-2.6
			c-1.4-0.5-2.9-0.5-4.3-0.2c-2.4,0.5-4.3,1.5-5.5,3.7c-0.9,1.6-1.1,3.3-1.1,5c0.1,2.1,0.9,3.8,3,4.6c1.3,0.5,2.7,0.6,4.1,0.3
			c2.5-0.5,4.1-2,4.8-4.5c0-0.1-0.2-0.4-0.2-0.5c-0.7,1-1.3,2-1.9,3c-0.6,0.9-1.6,1.2-2.6,1.1c-1-0.2-1.6-0.9-1.7-1.8
			C236.8,119.2,236.7,118,236.6,116.7z M154.1,76.5c-0.2,1.1-0.3,2-0.5,2.9c-0.3,1.9-0.7,3.8-1,5.7c-0.5,2.7,1.1,4.4,3.8,4.5
			c2.5,0.1,4-1.3,5.1-3.2c0.1-0.2,0.2-0.4,0.3-0.5c-0.2-0.1-0.4-0.2-0.5-0.2c-0.6,0.8-1.1,1.6-1.8,2.1c-0.4,0.3-1.1,0.4-1.6,0.2
			c-0.3-0.1-0.5-0.8-0.5-1.2c-0.1-0.5,0.1-1.1,0.2-1.6c0.6-2.9,1.1-5.8,1.7-8.6c1-0.2,2.1,0.2,3-0.2c0-0.1,0-0.2,0-0.4
			c-1,0-1.9,0-2.9,0c0.2-1.3,0.5-2.6,0.7-4c-1.4,0.3-2.7,0.6-4,0.8c-1.1,0.2-1.7,0.7-1.7,1.9c0,0.9-0.4,1.5-1.5,1.3
			c-0.3,0-0.5,0.1-0.8,0.2c0,0.1,0.1,0.2,0.1,0.3C152.8,76.5,153.4,76.5,154.1,76.5z M163.5,157.5c4.5-0.8,8.3-5.2,7.3-12.4
			C166.4,146.3,162.1,152.1,163.5,157.5z M160.9,138.3c-1.1,1.4-1.7,2.8-2.1,4.4c-0.6,2.8,0,5.3,1.9,7.4c0.6,0.6,0.9,0.5,1.3-0.2
			c1.1-1.9,1.6-4.1,1.3-6.3C163.1,141.8,162.4,139.9,160.9,138.3z M209.7,107.8c0.8-0.3,1.6-0.4,2.2-0.8c0.9-0.5,1.5-1.4,1.3-2.5
			c-0.1-1-0.8-1.5-1.8-1.8c-1-0.3-1.9,0-2.8,0.3c-1.2,0.5-2,1.9-1.7,3C207.3,107,208.3,107.6,209.7,107.8z"/>
		<path fill="#FDFDFD" d="M165.1,182.3c2.8-0.2,5.7-0.3,8.5-0.6c3.6-0.4,7.1-0.8,10.7-1.3c4.2-0.6,8.3-1.4,12.5-2.1
			c1-0.2,1.9-0.3,3-0.5c-0.3,1.6-0.5,3.2-0.8,4.7c-0.9,4.4-1.8,8.7-2.6,13.1c-1.1,5.8-2.3,11.5-3.4,17.3c-1.2,5.8-2.3,11.7-3.5,17.5
			c-0.7,3.4-1.4,6.9-2,10.3c-3.8,0-7.5,0-11.3,0c-2.6,0-5.3,0-7.9,0c0,0,0-0.1,0-0.1c0-5.6,0-11.3,0-17c-1.8,0-3.4,0-5,0
			c-3.3,0-6.5,0-9.8,0.1c-0.1,0.3-0.2,0.6-0.2,1c0,5.4,0,10.7,0,16.1c-4,0-8,0-12.1,0c-2.4,0-4.7,0-7.1,0c-0.6-3.2-1.2-6.3-1.9-9.5
			c-0.7-3.6-1.4-7.1-2.1-10.7c-1.2-5.8-2.3-11.7-3.5-17.5c-1.1-5.6-2.3-11.3-3.4-16.9c-0.5-2.4-0.9-4.9-1.4-7.3
			c-0.1-0.3-0.1-0.6-0.1-0.9c3.3,0.6,6.5,1.1,9.8,1.7c3.5,0.5,7,1,10.5,1.5c3.2,0.4,6.4,0.8,9.6,1.1c1.5,0.2,3.1,0.1,4.6,0.2
			c0.2,0.1,0.3,0.2,0.5,0.2c2.6,0,5.2,0,7.9,0C164.8,182.5,165,182.4,165.1,182.3z M146.5,195.8c-1.3,0-2.5,0-3.8,0
			c-0.1,0.1-0.4,0.2-0.4,0.3c0,1.1,0,2.2,0,3.4c1.6,0,3.1,0,4.7,0c0-1.2,0-2.3,0-3.4C146.9,196,146.6,195.9,146.5,195.8z
			 M146.7,200.5c-1.3,0-2.7,0-4,0c-0.1,0.1-0.4,0.2-0.4,0.3c0,1.1,0,2.3,0,3.4c1.6,0,3.1,0,4.7,0c0-1.2,0-2.3,0-3.4
			C146.9,200.7,146.8,200.6,146.7,200.5z M179.7,200.5c-1.5,0-2.9,0-4.4-0.1c0,0-0.1-0.1-0.1-0.1c0,0-0.1,0-0.1,0.1
			c0,1.2,0,2.5,0,3.7c1.6,0,3.2,0,4.8,0c0-1.2,0-2.3,0-3.4C180,200.7,179.8,200.6,179.7,200.5z M180.7,204.2c1.6,0,3.2,0,4.8,0
			c0-1.3,0-2.6,0-3.8c-1.6,0-3.2,0-4.8,0C180.7,201.7,180.7,202.9,180.7,204.2z M180.7,195.6c0,1.3,0,2.6,0,3.8c1.6,0,3.2,0,4.8,0
			c0-1.3,0-2.5,0-3.8C183.9,195.6,182.4,195.6,180.7,195.6z M136.6,204.2c1.7,0,3.3,0,4.9,0c0-1.3,0-2.6,0-3.8c-1.7,0-3.3,0-4.9,0
			C136.6,201.7,136.6,202.9,136.6,204.2z M141.5,199.5c0-1.3,0-2.6,0-3.8c-1.7,0-3.3,0-4.9,0c0,1.3,0,2.6,0,3.8
			C138.2,199.5,139.8,199.5,141.5,199.5z M179.9,199.5c0-1.3,0-2.6,0-3.8c-1.6,0-3.2,0-4.7,0c0,1.3,0,2.5,0,3.8
			C176.8,199.5,178.3,199.5,179.9,199.5z"/>
		<path fill="#869F92" d="M161.8,177.9c2.7-15.8,14-33,36-35.3c0,1,0.1,1.9,0,2.9c-0.6,5.1-1.9,9.9-4.5,14.4c-2.3,4-5.3,7.3-9.1,10
			c-5,3.6-10.5,5.8-16.4,7.1c-1.6,0.3-3.3,0.6-4.9,0.9C162.5,177.9,162.2,177.9,161.8,177.9z"/>
		<path fill="#869F92" d="M124.4,149.3c3.9,0.3,7.4,1,10.8,2.2c6.2,2.1,11.6,5.5,15.9,10.5c3.8,4.4,6,9.5,7.4,15
			c0.2,0.7-0.1,0.9-0.7,0.9c-3.8,0.1-7.5-0.1-11.2-1.2c-4.9-1.6-9.1-4.2-12.6-8c-2.8-3-5-6.5-6.5-10.3
			C126.4,155.5,125.5,152.5,124.4,149.3z"/>
		<path fill="#EFEFF0" d="M100.2,123c0.4,0.2,0.6,0.4,0.9,0.4c1.2,0.3,2.1,0.9,2.7,2.1c0.3,0.7,0.7,1.3,1,1.9c0.8,1.7,1.8,1.8,3,0.4
			c0.1-0.1,0.2-0.3,0.6-0.4c0,0.3,0,0.6-0.1,0.8c-1.1,1.8-3.8,2.4-6.2,1.5c-1.8-0.7-2.7-2.3-3.4-4c-0.7-1.6-1.7-2.4-3.5-2.8
			c-2.9-0.7-4.4-2.4-4.9-5.5c-0.5-2.9,0.1-5.7,1.3-8.4c1.6-3.5,4.3-5.5,8.1-6c1.9-0.3,3.7-0.1,5.4,0.7c2,0.9,2.8,2.7,3.1,4.7
			c0.5,3,0.1,5.9-1.2,8.6c-1.3,2.7-3.2,4.8-6.4,5.5C100.5,122.7,100.5,122.8,100.2,123z M95,118.8c0.1,0,0.2,0,0.2,0
			c0,0.5-0.1,1,0,1.4c0.2,0.7,0.4,1.5,0.9,1.9c1.3,1,3.5,0.5,4.3-1.1c0.7-1.4,1.1-2.9,1.5-4.5c0.8-3.3,1.4-6.7,1.4-10.1
			c0-2.4-1.3-3.5-3.6-2.8c-1,0.3-1.7,1.1-2,2.1c-0.4,1.3-0.9,2.7-1.1,4C96,112.8,95.6,115.8,95,118.8z"/>
		<path fill="#EFEFF0" d="M199.6,76.5c-0.8,0-1.4,0-2.1,0c0-0.1,0-0.2,0-0.4c0.7-0.1,1.3-0.1,1.9-0.2c0.5-1.4,0.8-2.9,1.5-4.3
			c1-2.2,2.8-3.4,5.2-3.9c1.8-0.3,3.4-0.2,4.9,0.9c0.9,0.7,1.3,1.6,1.1,2.8c-0.3,1.2-1.2,2.1-2.4,2.3c-1.4,0.2-2.7-1.2-2.3-2.5
			c0.1-0.3,0.6-0.7,0.9-0.8c1,0,0.9-0.7,0.9-1.3c0.1-0.7-0.5-0.9-1-0.9c-0.8-0.1-1.4,0.4-1.6,1.1c-0.5,1.6-0.9,3.2-1.3,4.9
			c-0.1,0.6-0.2,1.2-0.2,1.8c1.1,0,2.2,0,3.2,0c0,0.1,0.1,0.2,0.1,0.2c-0.2,0.1-0.4,0.3-0.7,0.3c-0.7,0-1.4,0-2.1,0
			c-0.5,0-0.7,0.2-0.8,0.7c-0.7,3.9-1.4,7.8-2.1,11.6c-0.4,2.1-1,4.2-2.8,5.7c-1.7,1.5-3.8,1.9-6,1.7c-1.2-0.1-2.3-0.5-3.1-1.5
			c-0.8-1.1-0.6-2.8,0.5-3.8c1.1-1,2.4-1,3.4-0.1c0.6,0.6,0.8,1.3,0.4,2.1c-0.1,0.2-0.4,0.5-0.6,0.5c-0.7-0.1-0.9,0.3-0.9,0.8
			c0,0.4,0.1,1.1,0.4,1.3c0.3,0.2,1,0.1,1.4-0.1c1.1-0.7,1.2-2,1.4-3.1c0.8-4.3,1.5-8.6,2.3-12.9C199.2,78.5,199.4,77.6,199.6,76.5z
			"/>
		<path fill="#EFEFF0" d="M88.9,89.4c0.2-0.2,0.3-0.5,0.5-0.6c0.3-0.1,0.6,0,1,0c1-6.2,2-12.3,3-18.4c-0.4-0.6-1.4,0.3-1.5-0.7
			c3.2,0,6.3,0,9.5,0c0.7,0.1,1.3,0.2,2,0.4c3.2,0.8,4,3.3,3.2,6.3c-0.9,3.2-3.7,4.5-6.7,4.8c-1,0.1-1.9,0.1-3,0.2
			c-0.4,2.4-0.8,4.9-1.3,7.4c0.9,0,1.9,0,2.8,0c0.4,0,0.7,0.1,0.5,0.6C95.6,89.4,92.3,89.4,88.9,89.4z M97.1,80.7
			c2,0.3,3.1-0.9,3.6-2.6c0.5-1.7,0.6-3.5,0.7-5.2c0.1-0.8,0.1-1.8-0.8-2.3c-0.5-0.3-1.1-0.3-1.7-0.4c-0.1,0-0.3,0.7-0.4,1
			c-0.3,1.9-0.7,3.8-1,5.7C97.4,78.2,97.2,79.4,97.1,80.7z"/>
		<path fill="#EEEFEF" d="M141.7,76c-0.3,1.1-0.5,2.3-0.8,3.4c0,0,0.1,0.1,0.1,0.1c0.2-0.4,0.4-0.7,0.6-1.1c1.1-1.9,3.1-3,5.3-2.7
			c1.9,0.2,2.9,1.8,2.5,3.9c-0.5,2.5-1.1,5-1.7,7.4c0,0.2-0.1,0.4-0.1,0.6c0.1,0.3,0.1,0.6,0.3,0.7c0.2,0.1,0.6,0,0.8-0.1
			c0.5-0.3,1-0.7,1.5-1.1c0-0.1,0.1,0.2,0,0.3c-1.4,2.7-5.7,2.7-7,0.9c-0.9-1.2-0.7-2.4-0.4-3.7c0.5-2.1,1.1-4.1,1.6-6.2
			c0.1-0.4-0.1-0.8-0.1-1.2c-0.4,0.1-1,0.1-1.3,0.3c-1.3,1.1-1.9,2.7-2.3,4.3c-0.6,2.4-0.9,4.8-1.3,7.2c-1.7,0.1-3.6,0.2-5.3,0.3
			c0.7-4.3,1.5-8.5,2.3-12.9c-0.6,0-1.1,0-1.5,0c-0.4,0-0.6-0.1-0.5-0.5C136.9,76,139.3,76,141.7,76z"/>
		<path fill="#EFEFF0" d="M183.4,113c1-1.7,2.2-3.2,4.3-3.6c2.7-0.5,4.6,1.1,4,3.9c-0.5,2.5-1.1,4.9-1.7,7.4
			c-0.1,0.4,0.1,0.8,0.2,1.2c0.4-0.1,0.9-0.2,1.3-0.4c0.4-0.2,0.7-0.7,1.1-1.1c0,0.3,0.2,0.6,0.1,0.7c-1.4,2.3-4.4,2.9-6.4,1.5
			c-1.5-1-1.4-2.6-1-4.2c0.5-2.1,1.1-4.1,1.6-6.1c0.1-0.4-0.1-0.9-0.1-1.4c-0.5,0.2-1.1,0.2-1.5,0.6c-1.4,1.5-2.1,3.4-2.5,5.4
			c-0.4,1.8-0.6,3.7-0.9,5.5c0,0.2-0.4,0.6-0.6,0.6c-1.6,0.1-3.3,0-4.8,0c0.7-4.1,1.5-8.4,2.3-12.8c-0.6,0-1.1,0.1-1.5,0
			c-0.2,0-0.4-0.3-0.6-0.5c2.4,0,4.8,0,7.2,0c-0.2,1.1-0.4,2.1-0.7,3.2c0,0.2-0.1,0.4-0.1,0.5c0.1,0,0.1,0,0.2,0
			C183.4,113.3,183.4,113.2,183.4,113z"/>
		<path fill="#EFEFF0" d="M221.3,109.7c-0.3,1.3-0.5,2.7-0.9,4.3c0.3-0.6,0.5-1,0.7-1.4c1.1-2.1,2.7-3.3,5.1-3.2
			c2.6,0,3.3,1.8,3,3.9c-0.4,2.5-1.1,5-1.6,7.5c0,0.2-0.1,0.4-0.1,0.6c0,0.7,0.4,1,1,0.6c0.5-0.4,1-0.9,1.5-1.4
			c0.1,0.1,0.2,0.3,0.2,0.5c-0.4,1.1-2.3,2.3-3.8,2.3c-2,0-3.2-0.8-3.7-2c-0.6-1.3-0.1-2.6,0.2-3.8c0.4-1.8,1-3.5,1.4-5.3
			c0.1-0.4-0.1-0.9-0.1-1.3c-0.5,0.2-1.1,0.2-1.5,0.5c-1.5,1.5-2.1,3.4-2.5,5.4c-0.4,2-0.7,4-1,6.1c-1.8,0.1-3.6,0.3-5.4,0.4
			c0.8-4.4,1.5-8.6,2.3-13c-0.6,0-1.1,0-1.6,0c-0.4,0-0.7-0.1-0.3-0.5C216.7,109.7,219,109.7,221.3,109.7z"/>
		<path fill="#EFEFF0" d="M117.2,109.8c-0.8,3.5-1.5,6.9-2.2,10.4c-0.1,0.4,0,1.2,0.3,1.4c0.5,0.4,1.1-0.1,1.4-0.5
			c1.2-1.5,1.7-3.2,2-5c0.4-1.9,0.7-3.9,1-6c1.7-0.1,3.5-0.2,5.4-0.3c-0.3,1.4-0.6,2.8-0.8,4.3c-0.4,2.4-0.8,4.8-1.2,7.2
			c-0.1,0.6,0.3,1.1,0.9,0.9c0.5-0.2,0.9-0.7,1.3-1c0.2-0.1,0.4-0.2,0.7-0.2c-1.3,2.5-3.8,2.9-5.9,2.1c-1.1-0.4-1.4-1.3-1.6-2.3
			c-0.1-0.3,0-0.7,0-1.3c-0.6,0.8-1,1.5-1.4,2.1c-1,1.4-3.3,2.2-5,1.7c-1.7-0.5-2.6-1.9-2.2-3.7c0.5-3,1.2-5.9,1.7-8.9
			c0-0.1,0-0.2,0-0.4c-0.4,0-0.8,0-1.2,0c-0.4,0-0.6-0.1-0.5-0.5C112.4,109.8,114.8,109.8,117.2,109.8z"/>
		<path fill="#EFEFF0" d="M142.7,109.7c-0.7,3.6-1.4,7.2-2,10.8c-0.1,0.5,0,1.3,0.3,1.5c0.6,0.5,1.1-0.1,1.5-0.5
			c0.3-0.3,0.5-0.6,0.8-0.9c0.2,1.3-1.5,2.7-3.1,2.8c-2,0.1-3.9-0.4-3.9-3.2c-0.5,0.7-1,1.5-1.6,2.1c-1.4,1.3-3.1,1.5-4.9,0.9
			c-1.7-0.5-2.3-1.7-2.6-3.3c-0.4-3,0.1-5.7,1.9-8.1c1.3-1.8,4.9-2.9,7-1.7c0.4,0.2,0.8,0.7,1.2,1c0.1-0.3,0.2-0.6,0.3-1.1
			C139.2,109.7,140.9,109.7,142.7,109.7z M136.8,113.1c0-0.5,0-0.9-0.1-1.3c-0.2-0.7-0.3-1.4-1.2-1.6c-0.9-0.1-1.4,0.4-1.7,1.1
			c-1.1,2.9-1.7,6-1.7,9.1c0,0.7,0.1,1.3,0.9,1.6c0.7,0.2,1.5-0.2,1.9-1C136.3,118.6,136.6,115.8,136.8,113.1z"/>
		<path fill="#EFEFF0" d="M174.5,109.6c0.4,0,0.5,0,0.4,0.5c-0.7,3.5-1.4,7-2,10.5c-0.1,0.5,0.2,1,0.3,1.5c0.5-0.2,1.1-0.4,1.6-0.6
			c0.3-0.2,0.5-0.5,0.8-0.9c0.1,1.6-2.2,2.9-3.5,2.9c-2-0.1-3.6-0.5-3.7-3.4c-0.4,0.6-0.7,1.2-1.2,1.7c-1.5,1.7-3.7,2.1-5.7,1.3
			c-1.1-0.4-1.8-1.2-2-2.3c-0.8-3.4-0.3-6.5,1.9-9.3c1.3-1.7,4.5-2.6,6.5-1.7c0.5,0.2,1,0.7,1.5,1.2c0.1-0.3,0.1-0.7,0.2-1.1
			c0.8,0,1.7,0,2.5,0C173,109.7,173.7,109.6,174.5,109.6z M164.4,119.8c0,0.4-0.1,0.9,0,1.3c0.2,1,1.2,1.4,2.1,0.8
			c0.3-0.2,0.5-0.5,0.6-0.8c0.6-1.7,1.2-3.3,1.6-5c0.3-1.4,0.2-3,0.2-4.5c0-0.7-0.4-1.2-1.2-1.3c-0.8-0.1-1.3,0.3-1.6,1
			C164.9,114,164.7,116.9,164.4,119.8z"/>
		<path fill="#EFEFF0" d="M126.1,86.7c-0.7,0.7-1.1,1.4-1.7,1.9c-1.5,1.4-3.3,1.3-5.1,0.7c-1.5-0.5-2.1-1.7-2.3-3.2
			c-0.4-3,0.1-5.8,2-8.2c1.3-1.7,4.7-2.7,6.7-1.8c0.5,0.2,0.9,0.8,1.4,1.2c0.1-0.4,0.2-0.8,0.4-1.2c0.8,0,1.7,0,2.5,0
			c0.8,0,1.7,0,2.6,0c-0.4,2.2-0.9,4.5-1.4,6.7c-0.3,1.5-0.5,3-0.7,4.5c0,0.4,0.2,0.8,0.4,1.2c0.4-0.2,0.9-0.3,1.2-0.5
			c0.3-0.1,0.4-0.5,0.6-0.7c0.1-0.1,0.3-0.2,0.4-0.2c0,0.2,0.1,0.4,0,0.6c-0.7,1.4-2.8,2.3-4.5,2C127.1,89.3,126.3,88.5,126.1,86.7z
			 M122,86.1c0,0.3-0.1,0.7,0,1c0.2,0.5,0.4,1.1,0.8,1.2c0.4,0.1,1-0.2,1.5-0.4c0.2-0.1,0.4-0.4,0.5-0.7c1.3-2.4,1.7-4.9,1.8-7.5
			c0-0.8-0.1-1.6-0.3-2.3c-0.1-0.6-0.6-0.9-1.2-0.9c-0.6,0-1,0.2-1.3,0.9C122.5,80.2,122.3,83.2,122,86.1z"/>
		<path fill="#869F92" d="M158.7,158.5c-4-0.8-7.4-2.7-9.7-6.2c-1.7-2.6-2.5-5.6-2.7-8.7c-0.1-1.1-0.2-2.1-0.2-3.2
			C153,142.3,159.7,149.4,158.7,158.5z"/>
		<path fill="#EFEFF0" d="M195.8,81.5c0,1.7-0.5,3.8-2,5.6c-1.9,2.2-4.5,2.7-7.3,2.4c-1.2-0.1-2.3-0.4-3.3-1.2
			c-1.4-1.2-1.6-2.9-1.5-4.5c0.1-1.6,0.4-3.2,1.3-4.6c1.2-1.8,2.8-2.9,4.9-3.3c1.3-0.2,2.8-0.2,4.1,0
			C194.5,76.3,195.8,78.1,195.8,81.5z M186.2,86.8c0.1,0,0.2,0,0.3,0c0,0.3,0,0.7,0,1c0,0.8,0.6,1.3,1.4,1.2
			c0.8-0.1,1.3-0.5,1.5-1.2c0.5-2.1,1-4.2,1.3-6.3c0.2-1.4,0.2-2.9,0.2-4.4c0-0.8-0.7-1.1-1.5-0.8c-0.9,0.3-1.2,1-1.4,1.8
			C187.3,81,186.7,83.9,186.2,86.8z"/>
		<path fill="#EFF0F1" d="M116.3,68.3c-0.5,2.9-1.1,5.9-1.6,8.8c-0.6,3.3-1.3,6.7-1.8,10c-0.1,0.4,0.2,0.8,0.4,1.3
			c0.4-0.1,0.9-0.2,1.2-0.4c0.4-0.3,0.7-0.8,1.2-1.4c0.1,0.4,0.2,0.6,0.1,0.7c-1.3,2.5-5.3,3-7.1,1c-0.9-1-0.9-2.2-0.7-3.3
			c0.9-4.9,1.9-9.8,2.9-14.7c0.1-0.4,0.1-0.8,0.2-1.3c-0.6,0-1.2,0-2,0c0.1-0.4,0.2-0.6,0.3-0.8C111.6,68.3,113.9,68.3,116.3,68.3z"
			/>
		<path fill="#EEEFEF" d="M166.3,87.2c-0.4,0-0.7,0-1.1,0c-0.2,0.9,0.1,1.5,0.9,1.6c1,0.1,2,0.1,3-0.1c0.8-0.2,1.2-0.9,1.3-1.8
			c0-0.8-0.3-1.5-1-1.8c-1-0.5-2.1-0.9-3.1-1.3c-1.4-0.6-2.1-1.7-2.2-3.1c-0.1-1.6,0.6-2.9,2-3.7c2.6-1.5,5.3-1.5,8.1-0.7
			c1.4,0.4,2.1,2,1.5,3.2c-0.5,1.2-2,1.6-3.3,1c-0.6-0.3-0.9-0.7-0.8-1.3c0.1-0.5,0.1-1.2,1-1.1c0.1,0,0.4-0.3,0.4-0.4
			c0-0.3-0.1-0.7-0.3-0.9c-1-1-4-0.3-4.3,1.1c-0.2,0.8-0.1,1.5,0.7,1.9c1.2,0.6,2.4,1.2,3.7,1.7c3,1.1,2.6,5.1,0.5,6.6
			c-2.7,1.9-5.8,2-8.9,1.1c-2-0.6-2.7-2.7-1.5-4.1c0.8-0.9,2-1.2,2.9-0.7C166.6,84.9,166.8,85.9,166.3,87.2z"/>
		<path fill="#EFEFF0" d="M151.6,109.8c-0.4,1.4-0.7,2.8-1.1,4.4c1-1.3,1.8-2.5,2.9-3.5c1.2-1.1,2.7-1.7,4.4-0.9
			c0.9,0.4,1.4,1.2,1.4,2.3c-0.1,1.1-0.6,2.1-1.6,2.3c-0.8,0.2-1.6,0.2-2.4,0.1c-0.3,0-0.6-0.6-0.8-1c-0.1-0.5,0-1,0-1.5
			c-1.1,0.1-1.6,0.7-2.1,1.4c-1.2,1.6-1.6,3.5-1.9,5.4c-0.3,1.4-0.4,2.8-0.6,4.5c-1.8,0-3.5,0-5.3,0c0.7-4,1.4-8.3,2.2-12.7
			c-0.6,0-1,0-1.4,0c-0.5,0-0.7-0.2-0.5-0.7C146.9,109.8,149.3,109.8,151.6,109.8z"/>
		<path fill="#EFEFF0" d="M236.6,116.7c0.1,1.3,0.1,2.5,0.3,3.8c0.1,1,0.8,1.7,1.7,1.8c1,0.2,2-0.1,2.6-1.1c0.6-0.9,1.2-1.9,1.9-3
			c0.1,0.1,0.3,0.3,0.2,0.5c-0.6,2.4-2.2,4-4.8,4.5c-1.4,0.3-2.8,0.2-4.1-0.3c-2.1-0.8-3-2.5-3-4.6c0-1.7,0.2-3.4,1.1-5
			c1.2-2.2,3.1-3.3,5.5-3.7c1.5-0.3,2.9-0.3,4.3,0.2c1.5,0.5,2.1,1.2,2.2,2.6c0.1,1.3-0.6,2.5-1.8,3.1c-1.6,0.8-3.4,1.1-5.1,1.2
			C237.3,116.6,237,116.6,236.6,116.7z M236.8,116.3c0.8-0.3,1.5-0.5,2-0.8c1.5-0.8,1.8-3.5,1.4-4.7c-0.1-0.3-0.4-0.8-0.7-0.7
			c-0.4,0-0.9,0.2-1.1,0.5C237.4,112.1,237,114,236.8,116.3z"/>
		<path fill="#EFEFF0" d="M205,110.2c-1.1,0-2.2,0-3.2,0c-0.7,3.2-1.3,6.3-1.9,9.4c0,0.2-0.1,0.5,0,0.8c0.2,0.5,0.3,1.2,0.6,1.3
			c0.6,0.3,1.3,0.2,1.8-0.4c0.5-0.6,1-1.3,1.5-2c0.1,0.1,0.3,0.2,0.5,0.3c-1,1.7-2.1,3.2-4.2,3.6c-2.5,0.6-5.8-0.7-5-4.6
			c0.3-1.4,0.5-2.8,0.7-4.1c0.2-1.4,0.5-2.7,0.8-4.1c-0.7-0.1-1.3-0.1-1.9-0.2c0-0.1,0-0.2,0.1-0.3c0,0,0,0,0.1-0.1
			c0.7-0.1,1.5,0,1.9-0.4c0.4-0.4,0.4-1.3,0.4-2c0-0.5,0.3-0.7,0.7-0.8c1.5-0.3,3.1-0.7,4.7-1c-0.2,1.4-0.5,2.6-0.7,3.8c0,0,0,0,0,0
			c0,0.1,0.1,0.1,0.1,0.2c1,0,2,0,3,0.1C205,109.9,205,110.1,205,110.2z"/>
		<path fill="#EFEFF0" d="M154.1,76.5c-0.7,0-1.2,0-1.8,0c0-0.1-0.1-0.2-0.1-0.3c0.3-0.1,0.6-0.2,0.8-0.2c1.1,0.2,1.5-0.4,1.5-1.3
			c0-1.2,0.6-1.7,1.7-1.9c1.3-0.2,2.5-0.5,4-0.8c-0.3,1.4-0.5,2.7-0.7,4c1,0,2,0,2.9,0c0,0.1,0,0.2,0,0.4c-0.9,0.4-2,0-3,0.2
			c-0.6,2.9-1.1,5.7-1.7,8.6c-0.1,0.5-0.2,1.1-0.2,1.6c0,0.4,0.2,1.1,0.5,1.2c0.5,0.1,1.2,0.1,1.6-0.2c0.7-0.6,1.2-1.4,1.8-2.1
			c0.1,0,0.3,0.1,0.5,0.2c-0.1,0.2-0.2,0.4-0.3,0.5c-1.2,1.9-2.7,3.3-5.1,3.2c-2.7-0.1-4.3-1.9-3.8-4.5c0.3-1.9,0.7-3.8,1-5.7
			C153.8,78.5,153.9,77.6,154.1,76.5z"/>
		<path fill="#F0F0F1" d="M205,110.2c0-0.1,0-0.3,0-0.4c2.5,0,4.9,0,7.4,0c-0.7,3.5-1.4,6.9-2.1,10.4c-0.1,0.4-0.2,0.7-0.2,1.1
			c0,0.9,0.4,1.2,1.1,0.6c0.3-0.2,0.6-0.6,0.9-0.9c0.2-0.2,0.4-0.3,0.6-0.3c-0.8,2.2-3.2,2.9-4.8,2.6c-2.1-0.3-3-2.3-2.6-4.1
			c0.6-2.9,1.1-5.9,1.6-8.9C206.3,110.3,205.7,110.2,205,110.2z"/>
		<path fill="#859E91" d="M163.5,157.5c-1.4-5.4,3-11.2,7.3-12.4C171.8,152.3,168,156.8,163.5,157.5z"/>
		<path fill="#859E91" d="M160.9,138.3c1.4,1.6,2.2,3.5,2.4,5.4c0.3,2.2-0.1,4.3-1.3,6.3c-0.4,0.6-0.7,0.8-1.3,0.2
			c-1.9-2.1-2.6-4.6-1.9-7.4C159.2,141.1,159.8,139.7,160.9,138.3z"/>
		<path fill="#EFEFF0" d="M209.7,107.8c-1.4-0.1-2.5-0.8-2.7-1.8c-0.2-1,0.5-2.5,1.7-3c0.9-0.4,1.8-0.6,2.8-0.3
			c1,0.3,1.7,0.7,1.8,1.8c0.1,1.1-0.5,2-1.3,2.5C211.3,107.4,210.5,107.5,209.7,107.8z"/>
		<path fill="#00250E" d="M153.5,223.7c3.3,0,6.5,0,9.8-0.1c1.6,0,3.3,0,5,0c0,5.7,0,11.3,0,17c-0.1-0.4-0.2-0.7-0.2-1.1
			c0-4.8,0-9.6,0-14.4c0-0.4,0-0.7,0-1.2c-0.4,0-0.8,0-1.1,0c-4.2,0-8.3,0-12.5,0C154.2,223.8,153.8,223.7,153.5,223.7z"/>
		<path d="M168.4,240.7c2.6,0,5.3,0,7.9,0c3.8,0,7.5,0,11.3,0c-0.3,0.1-0.6,0.2-0.9,0.2c-5.8,0-11.6,0-17.3,0
			C169,240.9,168.7,240.8,168.4,240.7z"/>
		<path d="M134.2,240.7c2.4,0,4.7,0,7.1,0c4,0,8,0,12.1,0c-0.3,0.1-0.6,0.2-0.9,0.2c-5.8,0-11.6,0-17.4,0
			C134.8,240.9,134.5,240.8,134.2,240.7z"/>
		<path d="M212.4,109.8c-2.5,0-4.9,0-7.4,0c-1,0-2,0-3-0.1c0-0.1-0.1-0.1-0.1-0.2c0,0,0,0,0,0c3.2,0,6.3,0,9.5,0.1
			C211.7,109.6,212.1,109.7,212.4,109.8z"/>
		<path fill="#003425" d="M88.9,89.4c3.3,0,6.7,0,10,0c-0.2,0.1-0.4,0.2-0.7,0.2c-2.9,0-5.8,0-8.7,0C89.4,89.6,89.2,89.5,88.9,89.4z
			"/>
		<path d="M101.5,69.7c-3.2,0-6.3,0-9.5,0c0.2-0.1,0.4-0.2,0.7-0.2c2.7,0,5.5,0,8.2,0C101.1,69.5,101.3,69.6,101.5,69.7z"/>
		<path d="M165.1,182.3c-0.2,0.1-0.3,0.2-0.5,0.2c-2.6,0-5.2,0-7.9,0c-0.2,0-0.3-0.1-0.5-0.2C159.3,182.3,162.2,182.3,165.1,182.3z"
			/>
		<path fill="#003425" d="M141.7,76c-2.4,0-4.8,0-7.2,0c0.2-0.1,0.4-0.3,0.5-0.3c2,0,4.1,0,6.1,0C141.4,75.8,141.5,75.9,141.7,76z"
			/>
		<path d="M117.2,109.8c-2.4,0-4.8,0-7.2,0c0.2-0.1,0.3-0.2,0.5-0.2c2,0,4.1,0,6.1,0C116.8,109.6,117,109.7,117.2,109.8z"/>
		<path d="M183.9,109.7c-2.4,0-4.8,0-7.2,0c0.2-0.1,0.4-0.2,0.6-0.2c2,0,4.1,0,6.1,0C183.6,109.6,183.8,109.7,183.9,109.7z"/>
		<path d="M151.6,109.8c-2.3,0-4.7,0-7,0c0.2-0.1,0.3-0.2,0.5-0.2c2,0,4,0,6,0C151.3,109.6,151.4,109.7,151.6,109.8z"/>
		<path d="M221.3,109.7c-2.3,0-4.7,0-7,0c0.3-0.1,0.5-0.2,0.8-0.2c1.8,0,3.6,0,5.4,0C220.8,109.6,221.1,109.7,221.3,109.7z"/>
		<path d="M116.3,68.3c-2.3,0-4.7,0-7,0c0.2-0.1,0.5-0.2,0.7-0.2c1.9,0,3.8,0,5.6,0C115.8,68.2,116,68.3,116.3,68.3z"/>
		<path d="M174.5,109.6c-0.8,0.1-1.5,0.1-2.3,0.2c-0.8,0-1.7,0-2.5,0c0.3-0.1,0.5-0.2,0.8-0.2C171.8,109.5,173.1,109.6,174.5,109.6z
			"/>
		<path fill="#2A483E" d="M180.7,204.2c0-1.3,0-2.5,0-3.8c1.6,0,3.2,0,4.8,0c0,1.3,0,2.5,0,3.8C183.9,204.2,182.4,204.2,180.7,204.2
			z"/>
		<path fill="#2A483E" d="M180.7,195.6c1.6,0,3.2,0,4.8,0c0,1.3,0,2.5,0,3.8c-1.6,0-3.2,0-4.8,0C180.7,198.2,180.7,197,180.7,195.6z
			"/>
		<path fill="#244339" d="M175.4,200.5c1.5,0,2.9,0,4.4,0.1c0,0.9,0,1.8,0,2.7c0,0.5-0.2,0.7-0.7,0.7c-1,0-2,0-3,0
			c-0.5,0-0.7-0.2-0.7-0.7C175.4,202.3,175.4,201.4,175.4,200.5z"/>
		<path fill="#244339" d="M142.7,200.5c1.3,0,2.7,0,4,0c0,0.9,0,1.8,0,2.8c0,0.2-0.4,0.6-0.6,0.6c-1,0.1-2,0-3,0
			c-0.2,0-0.5-0.2-0.5-0.4C142.6,202.5,142.6,201.5,142.7,200.5z"/>
		<path fill="#244339" d="M142.7,195.8c1.3,0,2.5,0,3.8,0c0.1,1,0.1,2,0.1,3c0,0.1-0.4,0.4-0.6,0.4c-1,0-2,0-2.9,0
			c-0.2,0-0.6-0.3-0.6-0.4C142.5,197.8,142.6,196.8,142.7,195.8z"/>
		<path fill="#224036" d="M136.6,204.2c0-1.3,0-2.5,0-3.8c1.6,0,3.3,0,4.9,0c0,1.2,0,2.5,0,3.8C139.9,204.2,138.3,204.2,136.6,204.2
			z M139.1,203.9c2.3,0,2.3,0,2.3-2.3c0-0.1,0-0.1,0-0.2c0.1-0.5-0.2-0.7-0.7-0.7c-1,0-2,0-3,0c-0.7,0-0.8,0.3-0.8,0.9
			C136.8,203.9,136.8,203.9,139.1,203.9z"/>
		<path fill="#224036" d="M141.5,199.5c-1.7,0-3.3,0-4.9,0c0-1.3,0-2.5,0-3.8c1.6,0,3.2,0,4.9,0
			C141.5,196.9,141.5,198.1,141.5,199.5z M139.1,199.2c2.3,0,2.3,0,2.2-2.3c0-0.1,0-0.2,0-0.3c0-0.5-0.2-0.7-0.7-0.7c-1,0-2,0-3,0
			c-0.7,0-0.9,0.2-0.9,0.9C136.8,199.2,136.8,199.2,139.1,199.2z"/>
		<path fill="#224036" d="M179.9,199.5c-1.6,0-3.1,0-4.7,0c0-1.3,0-2.5,0-3.8c1.6,0,3.1,0,4.7,0
			C179.9,196.9,179.9,198.1,179.9,199.5z M177.6,199.2c2.2,0,2.2,0,2.2-2.2c0-0.1,0-0.3,0-0.4c0-0.5-0.2-0.7-0.7-0.7
			c-0.9,0-1.8,0.1-2.7,0c-0.8-0.1-1,0.3-1,1C175.4,199.2,175.4,199.2,177.6,199.2z"/>
		<path fill="#234137" d="M142.7,200.5c-0.1,1-0.1,2-0.1,3c0,0.1,0.3,0.4,0.5,0.4c1,0,2,0.1,3,0c0.2,0,0.5-0.4,0.6-0.6
			c0.1-0.9,0-1.8,0-2.8c0.1,0.1,0.2,0.2,0.2,0.3c0,1.1,0,2.2,0,3.4c-1.6,0-3.1,0-4.7,0c0-1.1,0-2.2,0-3.4
			C142.3,200.7,142.5,200.6,142.7,200.5z"/>
		<path fill="#224036" d="M142.7,195.8c-0.1,1-0.1,2-0.1,3c0,0.1,0.4,0.4,0.6,0.4c1,0,2,0,2.9,0c0.2,0,0.6-0.3,0.6-0.4
			c0-1-0.1-2-0.1-3c0.1,0.1,0.4,0.2,0.4,0.3c0,1.1,0,2.2,0,3.4c-1.6,0-3.1,0-4.7,0c0-1.1,0-2.3,0-3.4
			C142.3,196,142.5,195.9,142.7,195.8z"/>
		<path fill="#224036" d="M175.4,200.5c0,0.9,0,1.8,0,2.7c0,0.5,0.2,0.7,0.7,0.7c1,0,2,0,3,0c0.5,0,0.7-0.2,0.7-0.7
			c0-0.9,0-1.8,0-2.7c0.1,0.1,0.2,0.2,0.2,0.3c0,1.1,0,2.2,0,3.4c-1.6,0-3.2,0-4.8,0c0-1.3,0-2.5,0-3.7c0,0,0.1-0.1,0.1-0.1
			C175.3,200.4,175.3,200.4,175.4,200.5z"/>
		<path fill="#234238" d="M95,118.8c0.5-3,1-6,1.5-9c0.3-1.4,0.7-2.7,1.1-4c0.3-1,1-1.8,2-2.1c2.3-0.6,3.6,0.4,3.6,2.8
			c0,3.4-0.6,6.8-1.4,10.1c-0.4,1.5-0.8,3.1-1.5,4.5c-0.7,1.6-3,2.1-4.3,1.1c-0.5-0.4-0.7-1.2-0.9-1.9c-0.1-0.4,0-0.9,0-1.4
			C95.2,118.8,95.1,118.8,95,118.8z"/>
		<path fill="#224036" d="M97.1,80.7c0.2-1.3,0.4-2.5,0.6-3.7c0.3-1.9,0.6-3.8,1-5.7c0.1-0.4,0.2-1,0.4-1c0.6,0,1.2,0.1,1.7,0.4
			c0.9,0.5,0.9,1.5,0.8,2.3c-0.1,1.8-0.3,3.6-0.7,5.2C100.2,79.8,99.1,81,97.1,80.7z"/>
		<path fill="#244339" d="M183.4,113c0,0.1-0.1,0.3-0.1,0.4c-0.1,0-0.1,0-0.2,0c0-0.2,0.1-0.4,0.1-0.5
			C183.3,112.9,183.4,113,183.4,113z"/>
		<path fill="#234137" d="M136.8,113.1c-0.3,2.7-0.5,5.5-1.9,8c-0.4,0.8-1.2,1.2-1.9,1c-0.7-0.3-0.9-0.9-0.9-1.6
			c0-3.1,0.6-6.2,1.7-9.1c0.3-0.8,0.8-1.3,1.7-1.1c0.9,0.1,1,0.9,1.2,1.6C136.9,112.2,136.8,112.6,136.8,113.1z"/>
		<path fill="#234237" d="M164.4,119.8c0.3-2.9,0.5-5.8,1.7-8.5c0.3-0.7,0.8-1.1,1.6-1c0.8,0.1,1.2,0.7,1.2,1.3c0,1.5,0.1,3-0.2,4.5
			c-0.3,1.7-1,3.4-1.6,5c-0.1,0.3-0.4,0.6-0.6,0.8c-0.8,0.7-1.9,0.3-2.1-0.8C164.3,120.7,164.4,120.2,164.4,119.8z"/>
		<path fill="#244238" d="M122,86.1c0.3-3,0.5-6,1.8-8.7c0.3-0.6,0.7-0.8,1.3-0.9c0.7,0,1.1,0.3,1.2,0.9c0.2,0.8,0.3,1.5,0.3,2.3
			c-0.1,2.6-0.6,5.2-1.8,7.5c-0.1,0.2-0.3,0.5-0.5,0.7c-0.5,0.2-1.1,0.6-1.5,0.4c-0.4-0.1-0.6-0.8-0.8-1.2
			C121.9,86.9,122,86.5,122,86.1z"/>
		<path fill="#234137" d="M186.2,86.8c0.6-2.9,1.1-5.8,1.7-8.7c0.2-0.7,0.5-1.5,1.4-1.8c0.8-0.2,1.5,0,1.5,0.8c0,1.5,0,2.9-0.2,4.4
			c-0.3,2.1-0.8,4.2-1.3,6.3c-0.2,0.7-0.7,1.2-1.5,1.2c-0.8,0.1-1.3-0.4-1.4-1.2c0-0.3,0-0.7,0-1C186.3,86.8,186.3,86.8,186.2,86.8z
			"/>
		<path fill="#244238" d="M236.8,116.3c0.2-2.2,0.6-4.1,1.7-5.8c0.2-0.3,0.7-0.5,1.1-0.5c0.2,0,0.6,0.4,0.7,0.7
			c0.3,1.3,0.1,3.9-1.4,4.7C238.3,115.8,237.7,115.9,236.8,116.3z"/>
		<path fill="#244339" d="M201.8,109.5c0,0.1,0.1,0.1,0.1,0.2C201.9,109.7,201.9,109.6,201.8,109.5z"/>
		<path fill="#244339" d="M139.1,203.9c-2.3,0-2.3,0-2.3-2.4c0-0.6,0.1-0.9,0.8-0.9c1,0.1,2,0,3,0c0.5,0,0.8,0.2,0.7,0.7
			c0,0.1,0,0.1,0,0.2C141.4,203.9,141.4,203.9,139.1,203.9z"/>
		<path fill="#244339" d="M139.1,199.2c-2.3,0-2.3,0-2.3-2.3c0-0.7,0.2-1,0.9-0.9c1,0.1,2,0,3,0c0.5,0,0.7,0.2,0.7,0.7
			c0,0.1,0,0.2,0,0.3C141.4,199.2,141.4,199.2,139.1,199.2z"/>
		<path fill="#244339" d="M177.6,199.2c-2.2,0-2.2,0-2.2-2.2c0-0.8,0.2-1.1,1-1c0.9,0.1,1.8,0,2.7,0c0.5,0,0.7,0.2,0.7,0.7
			c0,0.1,0,0.3,0,0.4C179.8,199.2,179.8,199.2,177.6,199.2z"/>
	</g>
</g>
</svg>
