<?xml version="1.0" encoding="utf-8"?>
<!-- Generator: Adobe Illustrator 24.3.0, SVG Export Plug-In . SVG Version: 6.00 Build 0)  -->
<svg version="1.1" id="Layer_1" xmlns="http://www.w3.org/2000/svg" xmlns:xlink="http://www.w3.org/1999/xlink" x="0px" y="0px"
	 viewBox="0 0 252.5 216.3" style="enable-background:new 0 0 252.5 216.3;" xml:space="preserve">
<style type="text/css">
	.st0{fill:#231F20;}
	.st1{fill:#1C1921;}
	.st2{fill:#1A181F;}
	.st3{fill:#C5C0A8;}
	.st4{fill:none;stroke:#231F20;stroke-width:1.12;stroke-miterlimit:10;}
	.st5{fill:#FFFFFF;}
</style>
<path class="st0" d="M2.1,195.2c-0.2-0.9-0.4-1.5-0.6-2c-0.1-0.4-0.3-0.9-0.4-1.3c-0.1-0.3-0.3-0.6-0.5-0.8
	c-0.2-0.2-0.4-0.4-0.6-0.5v-0.3h4.4v0.3c-0.2,0-0.4,0.1-0.5,0.3c-0.1,0.1-0.2,0.3-0.2,0.5c0,0.3,0,0.6,0,0.9
	c0.1,0.5,0.2,0.9,0.4,1.4l5.5,18.9l5.2-17.9c0.2-0.6,0.3-1.1,0.4-1.5c0.1-0.4,0.1-0.8,0.1-1.1c0-0.3-0.1-0.6-0.3-0.8
	c-0.2-0.2-0.5-0.4-0.8-0.5v-0.3h3.1v0.3c-0.2,0.1-0.4,0.2-0.5,0.3c-0.2,0.2-0.3,0.4-0.4,0.6c-0.2,0.4-0.3,0.8-0.5,1.1
	c-0.2,0.5-0.4,1.2-0.6,2l-6.2,21.5H8.3L2.1,195.2z"/>
<path class="st0" d="M17.9,215.7c0.3-0.1,0.6-0.2,0.8-0.5c0.3-0.3,0.4-0.7,0.4-1.1c0.1-0.8,0.2-1.5,0.2-2.3c0-1,0-2.4,0-4.2v-9
	c0-1.8,0-3.2,0-4.2c0-0.8-0.1-1.6-0.2-2.3c0-0.4-0.2-0.8-0.4-1.1c-0.2-0.2-0.5-0.4-0.8-0.5v-0.3H23v0.3c-0.3,0.1-0.6,0.2-0.8,0.5
	c-0.2,0.3-0.4,0.7-0.4,1.1c-0.1,0.8-0.2,1.5-0.2,2.3c0,1,0,2.4,0,4.2v9c0,1.8,0,3.2,0,4.2c0,0.8,0.1,1.6,0.2,2.3
	c0,0.4,0.2,0.8,0.4,1.1c0.2,0.2,0.5,0.4,0.8,0.5v0.4h-5.1V215.7z"/>
<path class="st0" d="M24.1,215.7c0.3-0.1,0.6-0.3,0.8-0.6c0.2-0.3,0.4-0.8,0.4-1.2c0.1-0.8,0.2-1.6,0.2-2.4c0-1,0-2.4,0-4.2v-8.7
	c0-1.8,0-3.1,0-4.2c0-0.8-0.1-1.6-0.2-2.3c0-0.4-0.2-0.8-0.4-1.1c-0.2-0.2-0.5-0.4-0.8-0.5v-0.3h3.5c0.2,0,0.4,0,0.6,0.2
	c0.2,0.3,0.4,0.6,0.6,0.9l10.2,19.9v-12.4c0-1.8,0-3.2,0-4.2c0-0.8-0.1-1.6-0.2-2.4c-0.1-0.4-0.2-0.8-0.5-1.1
	c-0.3-0.3-0.6-0.5-0.9-0.6v-0.3h3.5v0.3c-0.3,0.2-0.6,0.4-0.8,0.6c-0.2,0.3-0.4,0.7-0.4,1.1c-0.1,0.8-0.2,1.6-0.2,2.4
	c0,1,0,2.4,0,4.2v17.2H39l-13-25v16.3c0,1.8,0,3.2,0,4.2c0,0.8,0.1,1.6,0.2,2.4c0.1,0.4,0.2,0.8,0.5,1.2c0.3,0.3,0.6,0.5,0.9,0.6
	v0.4h-3.5L24.1,215.7z"/>
<path class="st0" d="M49.5,215.7c0.3-0.1,0.6-0.3,0.8-0.6c0.2-0.3,0.4-0.8,0.4-1.2c0.1-0.8,0.2-1.6,0.2-2.4c0-1,0-2.4,0-4.2v-8.7
	c0-1.8,0-3.2,0-4.2c0-0.8-0.1-1.6-0.2-2.3c0-0.4-0.2-0.8-0.4-1.1c-0.2-0.2-0.5-0.4-0.8-0.5v-0.3H53c0.2,0,0.4,0,0.6,0.2
	c0.2,0.3,0.4,0.6,0.6,0.9l10.3,19.9v-12.4c0-1.8,0-3.2,0-4.2c0-0.8-0.1-1.6-0.2-2.4c-0.1-0.4-0.2-0.8-0.5-1.1
	c-0.3-0.3-0.6-0.5-0.9-0.6v-0.3h3.5v0.3c-0.3,0.2-0.6,0.4-0.8,0.6c-0.2,0.3-0.4,0.7-0.4,1.1c-0.1,0.8-0.2,1.6-0.2,2.4
	c0,1,0,2.4,0,4.2v17.2h-0.6l-13-25v16.3c0,1.8,0,3.2,0,4.2c0,0.8,0.1,1.6,0.2,2.4c0.1,0.4,0.2,0.8,0.5,1.2c0.3,0.3,0.6,0.5,0.9,0.6
	v0.4h-3.5L49.5,215.7z"/>
<path class="st0" d="M67,215.7c0.2-0.1,0.4-0.2,0.6-0.4c0.2-0.2,0.4-0.4,0.5-0.7c0.2-0.4,0.4-0.8,0.5-1.2c0.2-0.5,0.4-1.1,0.6-1.9
	l5.5-19c-0.1-0.4-0.2-0.7-0.4-0.9c-0.1-0.2-0.2-0.4-0.4-0.6c-0.1-0.1-0.2-0.2-0.4-0.3c-0.1-0.1-0.3-0.1-0.4-0.2v-0.3h2.9
	c0.2,0,0.3,0,0.3,0.1c0.1,0.2,0.2,0.3,0.2,0.5l6.3,20.8c0.2,0.6,0.3,1.1,0.5,1.5c0.1,0.4,0.3,0.8,0.4,1.1c0.1,0.3,0.3,0.6,0.5,0.8
	c0.2,0.2,0.4,0.4,0.7,0.6v0.4h-4.2v-0.4c0.4,0,0.7-0.4,0.7-0.8c0-0.6-0.1-1.1-0.3-1.7l-1.6-5.1h-9l-1,3.4c-0.1,0.4-0.2,0.9-0.3,1.3
	c-0.1,0.4-0.1,0.8-0.1,1.2c0,0.3,0.1,0.7,0.2,1c0.2,0.3,0.5,0.5,0.8,0.7v0.3H67L67,215.7z M79.4,207.7l-4.5-14.6l-4.2,14.6
	L79.4,207.7z"/>
<path class="st0" d="M88.3,215.7c0.3-0.1,0.6-0.2,0.8-0.5c0.2-0.3,0.4-0.7,0.4-1.1c0.1-0.8,0.2-1.5,0.2-2.3c0-1,0-2.4,0-4.2v-16.9
	h-1.9c-0.6,0-1.2,0-1.7,0.2c-0.5,0.1-0.9,0.3-1.3,0.6c-0.4,0.4-0.7,0.8-0.9,1.4c-0.3,0.7-0.5,1.5-0.6,2.3h-0.4l0.4-4
	c0-0.3,0.1-0.5,0.1-0.7c0.1-0.1,0.3-0.1,0.4-0.1h14.2c0.1,0,0.3,0,0.4,0.1c0.1,0.2,0.1,0.5,0.1,0.7l0.4,4h-0.4
	c-0.1-0.8-0.3-1.6-0.6-2.3c-0.2-0.5-0.5-1-1-1.4c-0.4-0.3-0.8-0.5-1.3-0.6c-0.6-0.1-1.2-0.2-1.8-0.2H92v16.9c0,1.8,0,3.2,0,4.2
	c0,0.8,0.1,1.6,0.2,2.3c0,0.4,0.2,0.8,0.4,1.1c0.2,0.2,0.5,0.4,0.8,0.5v0.4h-5.1L88.3,215.7z"/>
<path class="st0" d="M109,216.3c-2.2,0.1-4.3-0.6-5.9-2.1c-1.3-1.4-2-3.7-2-6.8v-8.8c0-1.8,0-3.1,0-4.2c0-0.8-0.1-1.6-0.2-2.3
	c0-0.4-0.2-0.8-0.4-1.1c-0.2-0.2-0.5-0.4-0.8-0.5v-0.3h5v0.3c-0.3,0.1-0.6,0.2-0.8,0.5c-0.2,0.3-0.4,0.7-0.4,1.1
	c-0.1,0.8-0.2,1.5-0.2,2.3c0,1,0,2.4,0,4.2v9.3c0,1.2,0.1,2.3,0.3,3.5c0.1,0.9,0.5,1.7,0.9,2.5c0.4,0.7,1,1.2,1.8,1.5
	c0.9,0.4,1.8,0.5,2.7,0.5c0.8,0,1.6-0.1,2.4-0.4c0.7-0.3,1.4-0.8,1.9-1.4c0.6-0.7,1-1.6,1.2-2.5c0.3-1.3,0.5-2.6,0.4-3.9v-8.8
	c0-1.8,0-3.2,0-4.2c0-0.8-0.1-1.6-0.2-2.4c-0.1-0.4-0.2-0.8-0.5-1.2c-0.3-0.3-0.6-0.5-0.9-0.6v-0.3h3.5v0.3
	c-0.3,0.2-0.6,0.4-0.8,0.6c-0.2,0.3-0.4,0.7-0.4,1.2c-0.2,0.8-0.3,1.6-0.3,2.4c0,1,0,2.4,0,4.2v8.8c0,1.3-0.1,2.7-0.5,4
	c-0.2,1-0.7,1.9-1.3,2.7c-0.5,0.7-1.2,1.2-2,1.5C110.7,216.2,109.8,216.4,109,216.3z"/>
<path class="st0" d="M117.7,215.7c0.3-0.1,0.6-0.2,0.8-0.4c0.2-0.3,0.4-0.7,0.4-1.1c0.1-0.8,0.2-1.6,0.2-2.3c0-1,0-2.4,0-4.2v-9
	c0-1.8,0-3.2,0-4.2c0-0.8,0-1.6-0.2-2.3c0-0.4-0.2-0.8-0.4-1.1c-0.2-0.2-0.5-0.4-0.8-0.5v-0.3h7.2c2.7,0,4.7,0.5,6,1.6
	c1.3,1.1,2,2.8,1.9,4.5c0,1-0.2,2.1-0.6,3c-0.7,1.6-2.1,2.9-3.8,3.4c-0.9,0.3-1.7,0.4-2.6,0.4h-0.9c1.1,0.2,2.1,0.8,2.7,1.7
	c0.8,1.3,1.4,2.7,1.6,4.3c0.2,1.6,0.7,3.3,1.4,4.8c0.3,0.9,1.2,1.5,2.1,1.5c0.4,0,0.7-0.1,1-0.3c0.2-0.2,0.5-0.4,0.6-0.7l0.2,0.2
	c-0.2,0.4-0.6,0.7-1,1c-0.5,0.3-1.1,0.5-1.7,0.5c-0.5,0-1-0.1-1.5-0.2c-0.5-0.2-1-0.6-1.4-1c-0.5-0.6-0.9-1.3-1.2-2
	c-0.4-1-0.7-2.1-0.9-3.2c-0.3-1.6-0.5-2.9-0.8-3.8c-0.1-0.7-0.4-1.4-0.8-2c-0.2-0.4-0.6-0.7-1.1-0.8c-0.6-0.1-1.2-0.1-1.8-0.1h-1.1
	v4.4c0,1.8,0,3.2,0,4.2c0,0.8,0.1,1.6,0.2,2.3c0,0.4,0.2,0.8,0.4,1.1c0.2,0.2,0.5,0.4,0.8,0.4v0.4h-5.1L117.7,215.7z M121.4,190.7
	v12.1h4.3c1.4,0.1,2.8-0.4,3.7-1.5c0.9-1.3,1.3-2.8,1.2-4.3c0-0.9-0.1-1.8-0.3-2.7c-0.2-0.7-0.5-1.4-0.9-2c-0.5-0.5-1.1-1-1.8-1.2
	c-0.9-0.3-1.9-0.4-2.8-0.4L121.4,190.7z"/>
<path class="st0" d="M134.7,215.7c0.3-0.1,0.6-0.2,0.8-0.5c0.2-0.3,0.4-0.7,0.4-1.1c0.1-0.8,0.2-1.5,0.2-2.3c0-1,0-2.4,0-4.2v-9
	c0-1.8,0-3.1,0-4.2c0-0.8-0.1-1.6-0.2-2.3c0-0.4-0.2-0.8-0.4-1.1c-0.2-0.2-0.5-0.4-0.8-0.5v-0.3h12.7c0.1,0,0.3,0,0.4,0.1
	c0.1,0.2,0.2,0.5,0.2,0.7l0.5,3.3h-0.4c-0.2-0.6-0.4-1.3-0.7-1.9c-0.2-0.4-0.5-0.8-0.9-1.1c-0.3-0.3-0.8-0.5-1.2-0.6
	c-0.5-0.1-1-0.2-1.5-0.2h-5.4v10.8h2.2c0.5,0,1-0.1,1.4-0.2c0.3-0.1,0.6-0.3,0.8-0.6c0.2-0.2,0.3-0.5,0.3-0.8c0-0.3,0.1-0.6,0.2-0.9
	h0.3v5.6h-0.3c0-0.3-0.1-0.6-0.2-0.9c-0.1-0.3-0.2-0.6-0.3-0.8c-0.2-0.3-0.5-0.5-0.8-0.6c-0.4-0.2-0.9-0.3-1.4-0.2h-2.2v13.7h5.9
	c0.5,0,1.1,0,1.6-0.1c0.4-0.1,0.9-0.3,1.2-0.5c0.4-0.3,0.7-0.8,0.9-1.2c0.3-0.7,0.5-1.5,0.7-2.2h0.4l-0.4,3.7c0,0.4-0.1,0.6-0.2,0.7
	c-0.1,0.1-0.3,0.1-0.4,0.1h-13.4V215.7z"/>
<path class="st0" d="M150,215.7c0.3-0.1,0.6-0.2,0.8-0.4c0.2-0.3,0.4-0.7,0.4-1.1c0.1-0.8,0.2-1.6,0.2-2.3c0-1,0-2.4,0-4.2v-9
	c0-1.8,0-3.1,0-4.2c0-0.8-0.1-1.6-0.2-2.3c0-0.4-0.2-0.8-0.4-1.1c-0.2-0.2-0.5-0.4-0.8-0.5v-0.3h5.2v0.3c-0.3,0.1-0.6,0.2-0.9,0.5
	c-0.3,0.3-0.4,0.7-0.4,1.1c-0.1,0.8-0.2,1.6-0.2,2.3c0,1,0,2.4,0,4.2v16.9h5.1c0.5,0,1.1,0,1.6-0.1c0.5-0.1,0.9-0.3,1.2-0.6
	c0.4-0.4,0.7-0.8,1-1.4c0.3-0.8,0.6-1.6,0.8-2.4h0.4l-0.5,4.1c0,0.4-0.1,0.6-0.2,0.7c-0.1,0.1-0.3,0.1-0.4,0.1H150V215.7z"/>
<path class="st0" d="M175.9,215.7c0.3-0.1,0.6-0.2,0.8-0.5c0.2-0.3,0.4-0.7,0.4-1.1c0.1-0.8,0.2-1.5,0.2-2.3c0-1,0-2.4,0-4.2v-9
	c0-1.8,0-3.2,0-4.2c0-0.8-0.1-1.6-0.2-2.3c0-0.4-0.2-0.8-0.4-1.1c-0.2-0.2-0.5-0.4-0.8-0.5v-0.3h12.7c0.1,0,0.3,0,0.4,0.1
	c0.1,0.2,0.2,0.5,0.2,0.7l0.5,3.3h-0.4c-0.2-0.6-0.4-1.3-0.7-1.9c-0.2-0.4-0.5-0.8-0.9-1.1c-0.3-0.3-0.8-0.5-1.2-0.6
	c-0.5-0.1-1-0.2-1.5-0.2h-5.4v10.8h2.2c0.5,0,1-0.1,1.4-0.2c0.3-0.1,0.6-0.3,0.8-0.6c0.2-0.2,0.3-0.5,0.3-0.8c0-0.3,0.1-0.6,0.2-0.9
	h0.3v5.6h-0.3c0-0.3-0.1-0.6-0.2-0.9c0-0.3-0.2-0.6-0.3-0.8c-0.2-0.3-0.5-0.5-0.8-0.6c-0.4-0.2-0.9-0.3-1.4-0.2h-2.2v13.7h5.9
	c0.5,0,1.1,0,1.6-0.1c0.4-0.1,0.9-0.3,1.2-0.5c0.4-0.3,0.7-0.8,0.9-1.2c0.3-0.7,0.5-1.4,0.7-2.2h0.4l-0.4,3.7c0,0.4-0.1,0.6-0.2,0.7
	c-0.1,0.1-0.3,0.1-0.4,0.1h-13.3V215.7z"/>
<path class="st0" d="M191.2,215.7c0.3-0.1,0.6-0.2,0.8-0.4c0.3-0.3,0.4-0.7,0.4-1.1c0.1-0.8,0.2-1.6,0.2-2.3c0-1,0-2.4,0-4.2v-9
	c0-1.8,0-3.2,0-4.2c0-0.8-0.1-1.6-0.2-2.3c0-0.4-0.2-0.8-0.4-1.1c-0.2-0.2-0.5-0.4-0.8-0.5v-0.3h5.2v0.3c-0.3,0.1-0.6,0.2-0.9,0.5
	c-0.3,0.3-0.4,0.7-0.4,1.1c-0.1,0.8-0.2,1.6-0.2,2.3c0,1,0,2.4,0,4.2v16.9h5.1c0.5,0,1.1,0,1.6-0.1c0.5-0.1,0.9-0.3,1.2-0.6
	c0.4-0.4,0.8-0.8,1-1.4c0.3-0.8,0.6-1.6,0.8-2.4h0.4l-0.5,4.1c0,0.4-0.1,0.6-0.2,0.7c-0.1,0.1-0.3,0.1-0.4,0.1h-12.6V215.7z"/>
<path class="st0" d="M205.5,215.7c0.3-0.1,0.6-0.2,0.8-0.5c0.2-0.3,0.4-0.7,0.4-1.1c0.1-0.8,0.2-1.5,0.2-2.3c0-1,0-2.4,0-4.2v-9
	c0-1.8,0-3.2,0-4.2c0-0.8-0.1-1.6-0.2-2.3c0-0.4-0.2-0.8-0.4-1.1c-0.2-0.2-0.5-0.4-0.8-0.5v-0.3h12.7c0.1,0,0.3,0,0.4,0.1
	c0.1,0.2,0.2,0.5,0.2,0.7l0.5,3.3h-0.4c-0.2-0.6-0.4-1.3-0.7-1.9c-0.2-0.4-0.5-0.8-0.9-1.1c-0.3-0.3-0.8-0.5-1.2-0.6
	c-0.5-0.1-1-0.2-1.5-0.2h-5.4v10.8h2.2c0.5,0,1-0.1,1.4-0.2c0.3-0.1,0.6-0.3,0.8-0.6c0.2-0.2,0.3-0.5,0.3-0.8c0-0.3,0.1-0.6,0.2-0.9
	h0.3v5.6h-0.3c0-0.3-0.1-0.6-0.2-0.9c0-0.3-0.2-0.6-0.3-0.8c-0.2-0.3-0.5-0.5-0.8-0.6c-0.4-0.2-0.9-0.3-1.4-0.2h-2.2v13.7h5.9
	c0.5,0,1.1,0,1.6-0.1c0.4-0.1,0.9-0.3,1.2-0.5c0.4-0.3,0.7-0.8,0.9-1.2c0.3-0.7,0.5-1.4,0.7-2.2h0.4l-0.4,3.7c0,0.4-0.1,0.6-0.2,0.7
	c-0.1,0.1-0.3,0.1-0.4,0.1h-13.4V215.7z"/>
<path class="st0" d="M222.3,195.2c-0.2-0.9-0.5-1.5-0.6-2c-0.1-0.4-0.3-0.9-0.4-1.3c-0.1-0.3-0.3-0.6-0.5-0.8
	c-0.2-0.2-0.4-0.4-0.6-0.5v-0.3h4.4v0.3c-0.2,0.1-0.4,0.1-0.5,0.3c-0.1,0.1-0.2,0.3-0.2,0.5c0,0.3,0,0.6,0,0.9
	c0.1,0.4,0.2,0.8,0.3,1.4l5.5,18.9l5.2-17.9c0.2-0.6,0.3-1.1,0.4-1.5c0.1-0.4,0.1-0.8,0.1-1.1c0-0.3-0.1-0.6-0.3-0.8
	c-0.2-0.2-0.5-0.4-0.8-0.5v-0.3h3.1v0.3c-0.2,0.1-0.4,0.2-0.5,0.3c-0.2,0.2-0.3,0.4-0.4,0.6c-0.2,0.4-0.3,0.8-0.5,1.1
	c-0.2,0.5-0.4,1.2-0.6,2l-6.2,21.5h-0.4L222.3,195.2z"/>
<path class="st0" d="M238.1,215.7c0.3-0.1,0.6-0.2,0.8-0.5c0.2-0.3,0.4-0.7,0.4-1.1c0.1-0.8,0.2-1.5,0.2-2.3c0-1,0-2.4,0-4.2v-9
	c0-1.8,0-3.1,0-4.2c0-0.8-0.1-1.6-0.2-2.3c0-0.4-0.2-0.8-0.4-1.1c-0.2-0.2-0.5-0.4-0.8-0.5v-0.3h12.7c0.1,0,0.3,0,0.4,0.1
	c0.1,0.2,0.2,0.5,0.2,0.7l0.5,3.3h-0.4c-0.2-0.6-0.4-1.3-0.7-1.9c-0.2-0.4-0.5-0.8-0.9-1.1c-0.3-0.3-0.8-0.5-1.2-0.6
	c-0.5-0.1-1-0.2-1.5-0.2h-5.4v10.8h2.2c0.5,0,1-0.1,1.4-0.2c0.3-0.1,0.6-0.3,0.8-0.6c0.2-0.2,0.3-0.5,0.3-0.8c0-0.3,0.1-0.6,0.2-0.9
	h0.3v5.6h-0.3c0-0.3-0.1-0.6-0.2-0.9c-0.1-0.3-0.2-0.6-0.3-0.8c-0.2-0.3-0.5-0.5-0.8-0.6c-0.4-0.2-0.9-0.3-1.4-0.2h-2.2v13.7h5.9
	c0.5,0,1.1,0,1.6-0.1c0.4-0.1,0.9-0.3,1.2-0.5c0.4-0.3,0.7-0.8,0.9-1.2c0.3-0.7,0.5-1.5,0.7-2.2h0.4l-0.4,3.7c0,0.4-0.1,0.6-0.2,0.7
	c-0.1,0.1-0.3,0.1-0.4,0.1h-13.4V215.7z"/>
<path class="st1" d="M61.7,43.3c-4.8,3-7.8,8.2-7.8,13.9c0.2,3.1,0.8,6.2,1.9,9.2l9.6,31.3c2.3,7.5,4.6,15.1,7.7,22.4
	c6.9,16.6,17.2,31.4,27.5,46.2c2.6,3.8,5.9,7.9,10.5,8.2c2.6,0.2,5.2-1,7.5-2.3c18.8-10.3,33.4-26.8,50.1-40.2
	c11.3-9,23.6-16.7,34.8-25.9c1.4-1,2.5-2.2,3.3-3.7c1-2.1,0.6-4.5,0.3-6.8c-1.7-10.2-3.5-20.8-9.4-29.3c-1.8-2.6-3.9-4.9-5.1-7.8
	c-0.8-1.9-1.2-4.1-2.9-5.2c-2.1-1.4-5.2-0.1-6.5,2.1s-1.5,4.8-1.5,7.4c-0.2,8.4-0.4,16.8-0.6,25.1c0,1.9-0.1,4-1.2,5.6
	c-0.9,1.1-2,2-3.3,2.7c-17.8,10.8-36.6,19.6-56.3,26.3L94.3,75.3c-4.9-8.9-9.8-17.9-17-25c-3-2.9-6.5-5.6-10.6-6.3s-8.9,1-10.6,4.8"
	/>
<path class="st2" d="M87.4,5.9c-5.6,1.4-9.7,6.2-13.1,10.9c-4.1,5.7-7.9,12.6-6.2,19.4c2.7,10.7,16.8,14.3,21.6,24.2
	c1,2,1.5,4.1,2.7,6c2.6,3.9,7.7,5.4,12.3,4.8s8.8-2.8,12.8-5.1c7.5-4.4,15.2-9.8,18.2-18c3.6-10-0.8-21-6.4-30
	c-4-6.2-8.8-12.3-15.4-15.6c-11.2-5.7-26.5-1.7-33.4,8.9"/>
<path class="st3" d="M138.2,48.3c-4.6,6.3-9.5,13.5-8.6,21.4c0.2,2.8,1.5,5.4,3.6,7.3c2.5,2.1,6.4,2.8,7.6,6
	c7.3,3.6,15.2,6,23.3,7.1c3.5,0.5,7.2,0.7,10.3-1.1c4.6-2.7,6-8.8,6-14.2s-1.1-10.9,0.4-16.1c1.4-4.9,5-9.6,3.8-14.6
	c-0.8-3.3-3.6-5.6-6.2-7.6c-3.4-2.6-6.8-5.3-10.8-6.8C154.4,24.8,145.2,38.9,138.2,48.3z"/>
<line class="st4" x1="208.9" y1="187.7" x2="216.6" y2="183"/>
<line class="st4" x1="240.7" y1="187.7" x2="248.4" y2="183"/>
<path class="st3" d="M134.9,78.5c2.3,2.4,5.1,4.7,8.4,4.8c0.2,0,0.4,0,0.6-0.2c0.1-0.1,0.1-0.3,0-0.5c-0.5-2.6-1.8-5-3.9-6.7
	c-1.3-1-2.8-1.9-4.3-2.5c-1.3-0.6-3.9-1.7-3.8,0.4C132,75.5,133.8,77.4,134.9,78.5z"/>
<path class="st5" d="M60.2,44.6L58.7,45c-0.1-0.2-0.1-0.5,0.1-0.7c0.2-0.2,0.4-0.3,0.6-0.4c0.3-0.1,2-1,2.3-0.5
	C62.1,43.9,60.6,44.5,60.2,44.6z"/>
<path class="st5" d="M59.3,45.1c-1.5,0.5-2.6,1.7-3,3.2c0,0.2-0.1,0.5-0.4,0.5c-0.2-0.9,0-1.9,0.5-2.7c0.5-0.8,1.1-1.5,1.9-2.1
	c0.3-0.3,0.7-0.5,1.2-0.6c0.2,0,0.4,0,0.6,0c0.3,0.1,0.6,0.6,0.5,0.9S59.6,45,59.3,45.1z"/>
</svg>
