<svg xmlns="http://www.w3.org/2000/svg" viewBox="0 0 808.54 795.18"><defs><style>.cls-1{fill:#1d1b1c;}.cls-2{fill:#868f89;}.cls-13,.cls-3,.cls-4,.cls-5,.cls-6{fill:none;}.cls-11,.cls-4{stroke:#231f20;}.cls-11,.cls-13,.cls-14,.cls-15,.cls-16,.cls-17,.cls-18,.cls-19,.cls-20,.cls-21,.cls-22,.cls-23,.cls-24,.cls-30,.cls-33,.cls-4,.cls-5,.cls-6{stroke-miterlimit:10;}.cls-4{stroke-width:1.03px;}.cls-14,.cls-15,.cls-16,.cls-17,.cls-18,.cls-19,.cls-20,.cls-21,.cls-22,.cls-23,.cls-24,.cls-30,.cls-33,.cls-5,.cls-6{stroke:#fff;}.cls-5{stroke-width:0.94px;}.cls-6{stroke-width:1.4px;}.cls-25,.cls-7{fill:#231f20;}.cls-8{fill:#1c1921;}.cls-9{fill:#1a181f;}.cls-10{fill:#c5c0a8;}.cls-11,.cls-12,.cls-31{fill:#fff;}.cls-11{stroke-width:0.32px;}.cls-13{stroke:#84301a;stroke-width:5px;}.cls-14,.cls-15,.cls-16,.cls-17,.cls-18,.cls-19,.cls-20,.cls-21,.cls-22,.cls-23,.cls-24,.cls-30,.cls-33{fill:#84301a;}.cls-15,.cls-33{stroke-width:1.09px;}.cls-16{stroke-width:0.6px;}.cls-17{stroke-width:0.9px;}.cls-18{stroke-width:0.79px;}.cls-19{stroke-width:0.81px;}.cls-20{stroke-width:0.75px;}.cls-21{stroke-width:0.73px;}.cls-22{stroke-width:0.82px;}.cls-23{stroke-width:0.82px;}.cls-24{stroke-width:1.02px;}.cls-25{font-size:33px;}.cls-25,.cls-31,.cls-33{font-family:SchnyderMLight, Schnyder M Web;}.cls-26{letter-spacing:4.17em;}.cls-27{letter-spacing:0em;}.cls-28{letter-spacing:-0.02em;}.cls-29{letter-spacing:-0.02em;}.cls-30{stroke-width:0.98px;}.cls-31{font-size:48px;}.cls-32{letter-spacing:0.01em;}.cls-33{font-size:50px;}.cls-34{letter-spacing:-0.1em;}.cls-35{letter-spacing:-0.12em;}</style></defs><g id="Layer_1" data-name="Layer 1"><path class="cls-1" d="M111,214.05c15.22.4,30.73,2.38,44.38,9.14,26.24,13,41.06,40.91,53.91,67.22,28.89,59.11,56.6,119.22,94.22,173.2l-47.39,17.25,20.74,8.61a17.51,17.51,0,0,0-9,17.27l31.65-2.16,1.75,13.05c13,5.71,28,3.46,42,.86s28.74-5.37,42.12-.56,24,20.42,18.06,33.35q-122.22,41.81-239.95,95.49c.92,16.53,17.08,28.93,33.45,31.39s11.69,11.19,27.48,6.2c0,0-4-12.39-13.69-4.74,0,0,127.14-23.88,185.6-51,36.75-17.07,73.15-38.4,113.59-41,2.61-.17,5.46-.35,7.4-2.1,2.11-1.91,2.46-5,2.63-7.88a270.29,270.29,0,0,0-9.25-87.83c-6.66-24.08-16.73-47.67-17.41-72.64-.56-20.74,4.9-43.7-7-60.71-4.12-5.92-10.17-10.68-12.54-17.5-1.57-4.52-1.32-9.45-1.06-14.23l2.85-51.16A31.72,31.72,0,0,1,471,298.62c-5.86-50.3-16-84.11-55.47-115.79,0,0-1.22-4.87-1.22-2.21.29.67-4.57-10.54-11.08-16.4-7.67.63-9.55,10.92-9.31,18.62.78,25.3-2.89,57-26.74,65.46a511.77,511.77,0,0,0,3.07-71.21,7.07,7.07,0,0,0-6.34-6.93c-5.79-.47-7.27,6.82-7.12,12.19l2.05,69.42c-4.7.69-8.41-3.79-10.83-7.87a144.54,144.54,0,0,1-14.29-113.19c5.29-18,15.13-36,31.76-44.69,20.08-10.55,45.67-4.87,64,8.47s30.86,33.08,42.22,52.71q22,38,40.45,77.79a1002.9,1002.9,0,0,1,92.52,453.73c-.12,3.69-.33,7.59-2.39,10.65-2.31,3.41-6.43,5-10.34,6.32-23,7.49-47.56,9-71.26,14-70.41,14.9-131.39,60-201.48,76.3-40.07,9.33-81.67,8.91-122.81,8.44l-141.7-1.61c-18.34-.21-46.4.5-54.74-.85C-4,670.35-1.12,604.79-1.48,418.92c-.06-28.39-1.46-57.51,0-85.89,1.09-21.29-5.73-70.67,6.69-88.76,4.64-6.76-4.82,4.62,0,0,2.73-2.62.75-8.53,4.44-11,6.68-4.47,14.25-5.54,22-7.62C58.27,218.55,83.37,214.05,111,214.05Z" transform="translate(66.7 0.51)"/><g id="Layer_5" data-name="Layer 5"><rect class="cls-2" x="357.87" y="680.93" width="320.84" height="111.58"/></g><path class="cls-1" d="M111,211.39c15.22.4,30.73,2.38,44.38,9.14,26.24,13,41.06,40.91,53.91,67.22,28.89,59.11,56.6,121.88,94.22,175.86-15.8,5.75-31.59,8.84-47.39,14.59,6.92,2.87,17.8,6.85,24.72,9.72-6.1,3.23-13.82,9.31-12.94,16.16l31.65-2.16L301.3,515c13,5.71,28,3.46,42,.86s28.74-5.37,42.12-.56,24,20.42,18.06,33.35q-122.22,41.8-239.95,95.48c.92,16.54,17,29.65,33.45,31.4,13.79,1.45,13.79,1.45,15.89,1.24l-2.1.21a582.27,582.27,0,0,0,185.6-51c36.75-17.07,73.15-38.4,113.59-41,2.61-.17,5.46-.35,7.4-2.1,2.11-1.91,2.46-5,2.63-7.88a270.29,270.29,0,0,0-9.25-87.83C504.06,463,494,439.44,493.31,414.46c-.56-20.73,4.9-43.69-7-60.71-4.12-5.91-10.17-10.67-12.54-17.49-1.57-4.52-1.32-9.45-1.06-14.23.95-17-2.66-9-1.71-26.07h0c-5.86-50.3-17.7-85-57.22-116.68,3.45,8.14,2.5,1.66,3.29,2.7-.5-8.35-7.38-15.11-13.84-20.43-7.67.64-9.55,10.93-9.31,18.63.78,25.29-2.89,57-26.74,65.45a511.11,511.11,0,0,0,3.18-66.15c-.09-5.26-2.05-12.3-7.31-12-5.08.3-6.41,7.12-6.26,12.21l2.05,69.42c-4.7.69-8.41-3.79-10.83-7.87a144.54,144.54,0,0,1-14.29-113.19c5.29-18,15.13-36,31.76-44.7,20.08-10.54,45.67-4.86,64,8.48s30.86,33.08,42.22,52.71q22,38,40.45,77.79a1002.9,1002.9,0,0,1,92.52,453.73c-.12,3.68-.33,7.59-2.39,10.65-2.31,3.41-6.43,5-10.34,6.32-23,7.49-47.56,9-71.26,14-70.41,14.9-131.39,60-201.48,76.3-40.07,9.33-81.67,8.91-122.81,8.44l-141.7-1.61C36.4,790,17.91,789.75,0,785.81-4,664.16-1.12,602.13-1.48,416.26c-.06-28.39-1.46-57.51,0-85.89,1.09-21.29-5.73-70.67,6.69-88.76,4.64-6.76-4.82,4.62,0,0,2.73-2.62.75-8.53,4.44-11,6.68-4.47,14.25-5.54,22-7.62C58.27,215.88,83.37,211.39,111,211.39Z" transform="translate(66.7 0.51)"/><path class="cls-1" d="M14.9,228.43C4.72,230.38-2.45,242,.38,252c1.38.52,2.87-.42,4-1.38a33.28,33.28,0,0,0,11.37-22.43" transform="translate(66.7 0.51)"/></g><g id="Layer_2" data-name="Layer 2"><path class="cls-3" d="M741.84,324.25v1" transform="translate(66.7 0.51)"/><rect class="cls-2" x="66.7" y="0.51" width="612" height="75.43"/><rect class="cls-4" x="66.7" y="0.51" width="612" height="75.43"/><path class="cls-5" d="M258.37,478.81l-5.93-15.57,17.25-4.75c0,3.23,3.87,6.45,3.86,9.67a84.4,84.4,0,0,0-12.61.58l-.1-4.93" transform="translate(66.7 0.51)"/><path class="cls-6" d="M352,534.58l33.84-9.35L398,541.35c-7.12.71-13.86,5.28-21,6,0-2.93-1.11-9.66-2.52-12.42l10.88-1.18" transform="translate(66.7 0.51)"/><path class="cls-7" d="M537.7,781.75l-.17-.57a3.24,3.24,0,0,0-.12-.37,1.29,1.29,0,0,0-.13-.24.61.61,0,0,0-.17-.15v-.09h1.23v.09a.37.37,0,0,0-.14.08.23.23,0,0,0-.07.14,1.21,1.21,0,0,0,0,.26,3.76,3.76,0,0,0,.1.39l1.52,5.42,1.44-5.14c0-.16.08-.3.11-.43a2,2,0,0,0,0-.33.43.43,0,0,0-.09-.23.5.5,0,0,0-.23-.16v-.09h.85v.09l-.14.1a.5.5,0,0,0-.12.17,3,3,0,0,0-.14.33c-.05.14-.1.33-.17.57l-1.73,6.18h-.12Z" transform="translate(66.7 0.51)"/><path class="cls-7" d="M542.11,787.61a.67.67,0,0,0,.22-.13.71.71,0,0,0,.12-.31,4.71,4.71,0,0,0,0-.67v-5a4.84,4.84,0,0,0,0-.67.66.66,0,0,0-.12-.31.69.69,0,0,0-.22-.14v-.09h1.42v.09a.55.55,0,0,0-.21.14.56.56,0,0,0-.13.31c0,.15,0,.38-.05.67v5c0,.3,0,.52.05.67a.6.6,0,0,0,.13.31.54.54,0,0,0,.21.13v.1h-1.42Z" transform="translate(66.7 0.51)"/><path class="cls-7" d="M543.84,787.61a.62.62,0,0,0,.22-.17.76.76,0,0,0,.12-.33c0-.16,0-.38.05-.67v-4.9c0-.29,0-.51-.05-.66a.61.61,0,0,0-.12-.31.71.71,0,0,0-.22-.15v-.09h1a.22.22,0,0,1,.16,0,1.23,1.23,0,0,1,.16.27l2.86,5.71V782.8c0-.51,0-.91,0-1.2a4.55,4.55,0,0,0-.06-.67.64.64,0,0,0-.14-.33.91.91,0,0,0-.26-.18v-.09h1v.09a1,1,0,0,0-.22.18.76.76,0,0,0-.12.33,4.84,4.84,0,0,0,0,.67c0,.29,0,.69,0,1.2v4.94H548l-3.61-7.18v4.67c0,.51,0,.91,0,1.21a4.7,4.7,0,0,0,.06.67.64.64,0,0,0,.14.33.56.56,0,0,0,.26.17v.1h-1Z" transform="translate(66.7 0.51)"/><path class="cls-7" d="M550.89,787.61a.54.54,0,0,0,.22-.17.76.76,0,0,0,.12-.33,3.73,3.73,0,0,0,0-.67c0-.3,0-.7,0-1.21v-2.5c0-.5,0-.9,0-1.19a3.53,3.53,0,0,0,0-.66.5.5,0,0,0-.34-.46v-.09h1a.23.23,0,0,1,.16,0s.08.13.16.27l2.85,5.71V782.8c0-.51,0-.91,0-1.2a4.55,4.55,0,0,0-.06-.67.64.64,0,0,0-.13-.33.91.91,0,0,0-.26-.18v-.09h1v.09a.76.76,0,0,0-.21.18.57.57,0,0,0-.12.33,3.65,3.65,0,0,0-.05.67c0,.29,0,.69,0,1.2v4.94H555l-3.61-7.18v4.67c0,.51,0,.91,0,1.21a3.73,3.73,0,0,0,.05.67.64.64,0,0,0,.14.33.62.62,0,0,0,.26.17v.1h-1Z" transform="translate(66.7 0.51)"/><path class="cls-7" d="M555.79,787.62a.56.56,0,0,0,.15-.1.78.78,0,0,0,.14-.19c0-.09.09-.2.15-.34s.1-.33.16-.55l1.54-5.46a2.39,2.39,0,0,0-.1-.26.76.76,0,0,0-.09-.16.44.44,0,0,0-.11-.09l-.12-.05v-.09h.81s.08,0,.09,0l.06.14,1.74,6c0,.17.09.32.13.44a2,2,0,0,0,.11.32,1,1,0,0,0,.13.23.74.74,0,0,0,.19.16v.1h-1.18v-.1c.13,0,.2-.1.2-.21a1.48,1.48,0,0,0-.08-.49l-.44-1.45h-2.5l-.27,1a2.83,2.83,0,0,0-.09.37,1.37,1.37,0,0,0,0,.34.82.82,0,0,0,.07.28.46.46,0,0,0,.22.19v.09h-.87Zm3.44-2.28L558,781.16l-1.18,4.18Z" transform="translate(66.7 0.51)"/><path class="cls-7" d="M561.72,787.61a.67.67,0,0,0,.22-.13.71.71,0,0,0,.12-.31c0-.15,0-.37.05-.67v-6h-.54a2.28,2.28,0,0,0-.48,0,1,1,0,0,0-.36.17,1.06,1.06,0,0,0-.26.39,3.52,3.52,0,0,0-.18.67h-.1l.11-1.15a.48.48,0,0,1,0-.21.16.16,0,0,1,.11,0h3.95a.14.14,0,0,1,.11,0,.48.48,0,0,1,0,.21l.12,1.15h-.11a2.9,2.9,0,0,0-.18-.67,1,1,0,0,0-.26-.39.86.86,0,0,0-.36-.17,2.41,2.41,0,0,0-.5,0h-.51v6c0,.3,0,.52,0,.67a.6.6,0,0,0,.13.31.54.54,0,0,0,.21.13v.1h-1.42Z" transform="translate(66.7 0.51)"/><path class="cls-7" d="M567.47,787.81a2.13,2.13,0,0,1-1.63-.61,2.82,2.82,0,0,1-.57-2v-2.51c0-.5,0-.9,0-1.19a3.65,3.65,0,0,0,0-.67.58.58,0,0,0-.11-.31.55.55,0,0,0-.21-.14v-.09h1.4v.09a.6.6,0,0,0-.22.14.66.66,0,0,0-.12.31,4.84,4.84,0,0,0-.05.67c0,.29,0,.69,0,1.19v2.66a5.66,5.66,0,0,0,.08,1,2,2,0,0,0,.26.71,1.14,1.14,0,0,0,.49.43,1.84,1.84,0,0,0,.76.14,1.76,1.76,0,0,0,.66-.12,1.24,1.24,0,0,0,.52-.39,1.93,1.93,0,0,0,.34-.72,4.38,4.38,0,0,0,.12-1.11v-2.51c0-.51,0-.91,0-1.2a3.86,3.86,0,0,0-.05-.68.73.73,0,0,0-.14-.33,1.35,1.35,0,0,0-.25-.18v-.09h1v.09a.85.85,0,0,0-.22.18.63.63,0,0,0-.12.33,3.86,3.86,0,0,0,0,.68c0,.29,0,.69,0,1.2v2.51a4.24,4.24,0,0,1-.13,1.15,2.11,2.11,0,0,1-.35.77,1.29,1.29,0,0,1-.56.43A1.89,1.89,0,0,1,567.47,787.81Z" transform="translate(66.7 0.51)"/><path class="cls-7" d="M569.91,787.61a.44.44,0,0,0,.21-.13.53.53,0,0,0,.13-.31c0-.15,0-.37,0-.67v-5c0-.29,0-.52,0-.67a.56.56,0,0,0-.13-.31.55.55,0,0,0-.21-.14v-.09h2a2.49,2.49,0,0,1,1.67.47,1.59,1.59,0,0,1,.53,1.29,2.14,2.14,0,0,1-.16.87,2,2,0,0,1-.44.61,1.72,1.72,0,0,1-.62.35,2.48,2.48,0,0,1-.73.11h-.26a1.24,1.24,0,0,1,.76.49,3.17,3.17,0,0,1,.43,1.22,5.26,5.26,0,0,0,.39,1.37.68.68,0,0,0,.59.44.46.46,0,0,0,.29-.08,1.07,1.07,0,0,0,.18-.19l0,.07a.91.91,0,0,1-.26.3.81.81,0,0,1-.48.13,1.25,1.25,0,0,1-.42-.08.89.89,0,0,1-.39-.27,1.92,1.92,0,0,1-.32-.56,4.78,4.78,0,0,1-.25-.92c-.08-.47-.15-.83-.21-1.09a1.8,1.8,0,0,0-.21-.57.49.49,0,0,0-.31-.22,3,3,0,0,0-.49,0h-.3v2.47a4.71,4.71,0,0,0,0,.67.61.61,0,0,0,.12.31.54.54,0,0,0,.22.13v.1h-1.42Zm1-7.16v3.46h1.19a1.2,1.2,0,0,0,1-.43,2.06,2.06,0,0,0,.33-1.25,3.41,3.41,0,0,0-.08-.76,1.32,1.32,0,0,0-.26-.56,1,1,0,0,0-.49-.34,2.23,2.23,0,0,0-.79-.12Z" transform="translate(66.7 0.51)"/><path class="cls-7" d="M574.65,787.61a.58.58,0,0,0,.22-.13.71.71,0,0,0,.12-.31,3.57,3.57,0,0,0,0-.67c0-.29,0-.69,0-1.2v-2.57c0-.5,0-.9,0-1.19a3.53,3.53,0,0,0,0-.66.5.5,0,0,0-.34-.46v-.09h3.54a.15.15,0,0,1,.1,0,.52.52,0,0,1,.06.21l.13.94h-.1a2.37,2.37,0,0,0-.2-.54,1,1,0,0,0-.25-.32.84.84,0,0,0-.33-.16,1.73,1.73,0,0,0-.42,0h-1.5v3.1h.6a.9.9,0,0,0,.4-.07.51.51,0,0,0,.21-.17.5.5,0,0,0,.09-.24c0-.09,0-.18,0-.27h.08v1.62H577c0-.09,0-.18,0-.27a.5.5,0,0,0-.09-.24.51.51,0,0,0-.21-.17.9.9,0,0,0-.4-.07h-.6v3.92h1.65a2.94,2.94,0,0,0,.44,0,.73.73,0,0,0,.33-.16,1.1,1.1,0,0,0,.26-.35,3.59,3.59,0,0,0,.19-.64h.1l-.1,1.06c0,.12,0,.18,0,.2a.16.16,0,0,1-.12,0h-3.73Z" transform="translate(66.7 0.51)"/><path class="cls-7" d="M578.92,787.61a.54.54,0,0,0,.22-.13.61.61,0,0,0,.12-.31,4.71,4.71,0,0,0,0-.67c0-.29,0-.69,0-1.2v-2.57c0-.5,0-.9,0-1.19a4.84,4.84,0,0,0,0-.67.66.66,0,0,0-.12-.31.69.69,0,0,0-.22-.14v-.09h1.45v.09a.69.69,0,0,0-.24.14.5.5,0,0,0-.12.31,4.84,4.84,0,0,0,0,.67c0,.29,0,.69,0,1.19v4.86h1.41a3,3,0,0,0,.45,0,.78.78,0,0,0,.34-.17,1.21,1.21,0,0,0,.27-.39,4.7,4.7,0,0,0,.21-.7h.1l-.14,1.17a.38.38,0,0,1-.05.2.16.16,0,0,1-.12,0h-3.5Z" transform="translate(66.7 0.51)"/><path class="cls-7" d="M586.13,787.61a.58.58,0,0,0,.22-.13.71.71,0,0,0,.12-.31,3.57,3.57,0,0,0,0-.67c0-.29,0-.69,0-1.2v-2.57c0-.5,0-.9,0-1.19a3.53,3.53,0,0,0,0-.66.5.5,0,0,0-.34-.46v-.09h3.54a.15.15,0,0,1,.1,0,.52.52,0,0,1,.06.21l.13.94h-.1a2.37,2.37,0,0,0-.2-.54,1,1,0,0,0-.25-.32.84.84,0,0,0-.33-.16,1.73,1.73,0,0,0-.42,0h-1.5v3.1h.6a.9.9,0,0,0,.4-.07.51.51,0,0,0,.21-.17.5.5,0,0,0,.09-.24,2.56,2.56,0,0,0,0-.27h.08v1.62h-.08a2.56,2.56,0,0,0,0-.27.5.5,0,0,0-.09-.24.51.51,0,0,0-.21-.17.9.9,0,0,0-.4-.07h-.6v3.92h1.65a2.85,2.85,0,0,0,.44,0,.73.73,0,0,0,.33-.16,1,1,0,0,0,.26-.35,3.59,3.59,0,0,0,.19-.64h.1l-.1,1.06c0,.12,0,.18,0,.2a.15.15,0,0,1-.12,0h-3.73Z" transform="translate(66.7 0.51)"/><path class="cls-7" d="M590.4,787.61a.54.54,0,0,0,.22-.13.61.61,0,0,0,.12-.31,4.71,4.71,0,0,0,0-.67c0-.29,0-.69,0-1.2v-2.57c0-.5,0-.9,0-1.19a4.84,4.84,0,0,0,0-.67.66.66,0,0,0-.12-.31.69.69,0,0,0-.22-.14v-.09h1.45v.09a.69.69,0,0,0-.24.14.57.57,0,0,0-.12.31,4.84,4.84,0,0,0,0,.67c0,.29,0,.69,0,1.19v4.86h1.42a2.94,2.94,0,0,0,.44,0,.78.78,0,0,0,.34-.17,1.21,1.21,0,0,0,.27-.39,4.7,4.7,0,0,0,.21-.7h.1l-.14,1.17a.38.38,0,0,1-.05.2.16.16,0,0,1-.12,0h-3.5Z" transform="translate(66.7 0.51)"/><path class="cls-7" d="M594.38,787.61a.51.51,0,0,0,.22-.13.6.6,0,0,0,.12-.31,3.57,3.57,0,0,0,0-.67c0-.29,0-.69,0-1.2v-2.57c0-.5,0-.9,0-1.19a3.53,3.53,0,0,0,0-.66.5.5,0,0,0-.34-.46v-.09h3.54a.15.15,0,0,1,.1,0,.52.52,0,0,1,.06.21l.13.94h-.1a3,3,0,0,0-.19-.54,1.21,1.21,0,0,0-.26-.32.84.84,0,0,0-.33-.16,1.73,1.73,0,0,0-.42,0h-1.5v3.1h.6a.9.9,0,0,0,.4-.07.51.51,0,0,0,.21-.17.64.64,0,0,0,.1-.24c0-.09,0-.18,0-.27h.09v1.62h-.09c0-.09,0-.18,0-.27a.64.64,0,0,0-.1-.24.51.51,0,0,0-.21-.17.9.9,0,0,0-.4-.07h-.6v3.92h1.65a2.85,2.85,0,0,0,.44,0,.82.82,0,0,0,.34-.16,1.09,1.09,0,0,0,.25-.35,3.59,3.59,0,0,0,.19-.64h.1l-.1,1.06c0,.12,0,.18,0,.2s-.06,0-.12,0h-3.73Z" transform="translate(66.7 0.51)"/><path class="cls-7" d="M599.05,781.75l-.16-.57a2,2,0,0,0-.13-.37,1.33,1.33,0,0,0-.12-.24.8.8,0,0,0-.17-.15v-.09h1.22v.09a.47.47,0,0,0-.14.08.3.3,0,0,0-.06.14.79.79,0,0,0,0,.26,3.76,3.76,0,0,0,.1.39l1.52,5.42,1.44-5.14c0-.16.08-.3.11-.43a1.27,1.27,0,0,0,0-.33.43.43,0,0,0-.09-.23.47.47,0,0,0-.22-.16v-.09h.85v.09l-.15.1a.5.5,0,0,0-.12.17,3.26,3.26,0,0,0-.13.33c-.05.14-.11.33-.17.57l-1.73,6.18h-.12Z" transform="translate(66.7 0.51)"/><path class="cls-7" d="M603.47,787.61a.54.54,0,0,0,.21-.13.53.53,0,0,0,.12-.31,3.57,3.57,0,0,0,.05-.67c0-.29,0-.69,0-1.2v-2.57c0-.5,0-.9,0-1.19a3.53,3.53,0,0,0-.05-.66.47.47,0,0,0-.12-.31.57.57,0,0,0-.21-.15v-.09H607a.13.13,0,0,1,.1,0s0,.09.06.21l.13.94h-.1A3,3,0,0,0,607,781a1.21,1.21,0,0,0-.26-.32.78.78,0,0,0-.33-.16,1.73,1.73,0,0,0-.42,0h-1.5v3.1h.61a.88.88,0,0,0,.39-.07.51.51,0,0,0,.21-.17.64.64,0,0,0,.1-.24c0-.09,0-.18,0-.27h.09v1.62h-.09c0-.09,0-.18,0-.27a.64.64,0,0,0-.1-.24.51.51,0,0,0-.21-.17.88.88,0,0,0-.39-.07h-.61v3.92h1.65a2.85,2.85,0,0,0,.44,0,.82.82,0,0,0,.34-.16,1.09,1.09,0,0,0,.25-.35,3.59,3.59,0,0,0,.19-.64h.1l-.09,1.06c0,.12,0,.18-.06.2s-.06,0-.12,0h-3.72Z" transform="translate(66.7 0.51)"/><path class="cls-8" d="M554.29,738.2a4.77,4.77,0,0,0-2.18,4,9.53,9.53,0,0,0,.53,2.63l2.68,9c.64,2.16,1.29,4.33,2.13,6.42,1.92,4.75,4.81,9,7.67,13.23.74,1.08,1.65,2.27,2.93,2.35a3.85,3.85,0,0,0,2.08-.66c5.25-2.95,9.3-7.69,14-11.54,3.15-2.59,6.58-4.78,9.69-7.41a3,3,0,0,0,.92-1.06,3.45,3.45,0,0,0,.07-1.94c-.46-2.92-1-6-2.61-8.39a11.88,11.88,0,0,1-1.41-2.24c-.21-.54-.33-1.18-.8-1.49a1.35,1.35,0,0,0-1.81.59,4.17,4.17,0,0,0-.42,2.11l-.18,7.21a3.1,3.1,0,0,1-.34,1.6,3,3,0,0,1-.92.78,79.94,79.94,0,0,1-15.68,7.54l-7.21-13.53a29.9,29.9,0,0,0-4.74-7.16,5.76,5.76,0,0,0-2.95-1.81,2.67,2.67,0,0,0-3,1.38" transform="translate(66.7 0.51)"/><path class="cls-9" d="M561.46,727.49c-1.57.41-2.71,1.78-3.66,3.13-1.14,1.63-2.2,3.61-1.73,5.56.74,3.06,4.69,4.11,6,7a15.34,15.34,0,0,0,.76,1.71,3.52,3.52,0,0,0,3.41,1.38,9.19,9.19,0,0,0,3.57-1.46c2.09-1.26,4.23-2.81,5.06-5.16,1-2.85-.21-6-1.79-8.58a11.8,11.8,0,0,0-4.3-4.48,7.34,7.34,0,0,0-9.3,2.54" transform="translate(66.7 0.51)"/><path class="cls-10" d="M575.64,739.63c-1.29,1.82-2.65,3.89-2.39,6.13a3.19,3.19,0,0,0,1,2.09c.71.6,1.79.81,2.12,1.7a21.33,21.33,0,0,0,6.49,2,4.38,4.38,0,0,0,2.86-.32c1.28-.76,1.68-2.52,1.67-4.07a16.6,16.6,0,0,1,.1-4.62c.39-1.41,1.4-2.76,1.06-4.18a4.31,4.31,0,0,0-1.73-2.18,11.16,11.16,0,0,0-3-2C580.13,732.88,577.56,736.94,575.64,739.63Z" transform="translate(66.7 0.51)"/><line class="cls-11" x1="662.02" y1="780.12" x2="664.15" y2="778.76"/><line class="cls-11" x1="670.88" y1="780.12" x2="673.01" y2="778.76"/><path class="cls-10" d="M574.69,748.3a3.51,3.51,0,0,0,2.35,1.38c.06,0,.13,0,.16,0a.2.2,0,0,0,0-.13,3.18,3.18,0,0,0-1.08-1.92,4.81,4.81,0,0,0-1.2-.71c-.37-.17-1.07-.48-1,.11S574.41,748,574.69,748.3Z" transform="translate(66.7 0.51)"/><path class="cls-12" d="M553.89,738.58l-.43.11a.17.17,0,0,1,0-.2.52.52,0,0,1,.18-.12c.1,0,.56-.29.64-.16S554,738.56,553.89,738.58Z" transform="translate(66.7 0.51)"/><path class="cls-12" d="M553.63,738.71a1.35,1.35,0,0,0-.84.94c0,.06,0,.14-.1.15a1.22,1.22,0,0,1,.14-.77,1.74,1.74,0,0,1,.51-.6.84.84,0,0,1,.33-.16.22.22,0,0,1,.16,0,.29.29,0,0,1,.13.27C553.93,738.65,553.72,738.68,553.63,738.71Z" transform="translate(66.7 0.51)"/></g><g id="Layer_3" data-name="Layer 3"><path class="cls-13" d="M356.62,201.13l11.93-.71a210.34,210.34,0,0,0-4.18,34.65c-.15,4-.12,8.33,2,11.78,2.32,3.82,6.84,5.87,11.29,6.32s8.91-.46,13.29-1.38a12.58,12.58,0,0,1-20.52,13.47L369,271.07a6.23,6.23,0,0,1,7.07,5.19,11.89,11.89,0,0,1,22-1.39c-5.78,6.35-17.05,6.46-23,.22l.51,9.43c6.18-4.87,16.94-1.13,18.77,6.53a15.67,15.67,0,0,0-15.06,11.33l-11.07,4.14a15.41,15.41,0,0,1,2.2,10.32,19.78,19.78,0,0,1,11.45-4.46l.17-10.53a20.51,20.51,0,0,0,8.28,1.32c2.81-.31,5.64-1.93,6.58-4.58s-.75-6.16-3.55-6.41l3.33-5.19,12.75,2.95L408,297.53a10.45,10.45,0,0,0-8.82,4.32l3.09,6.89a40.26,40.26,0,0,1-18.1,6l.54,7.69,16.46.4a18.88,18.88,0,0,1-27.59,21.58l.39,4.7a12.11,12.11,0,0,1,10.17-1.86l.47,12.72a9.85,9.85,0,0,0-13.27,5.1,33,33,0,0,0,25.26-11.86l6.38,12.54-17.05,6.58-3.13,5.92a19.49,19.49,0,0,0-9.86-5.22c-1.7,6.31,5.77,12.94,11.83,10.51l21.55-8.65c-4.5,5.34-10.53,11.24-17.34,9.67l-9.35,14.57-8.2-2.48,1.22,6.11c6.11-.4,11.13,7.2,8.36,12.67a47.06,47.06,0,0,0-17.15,6.95A16.68,16.68,0,0,1,369,402.94l-14.8,7.83a27.39,27.39,0,0,0,14.15-18.88l-9.87,4a41.06,41.06,0,0,1-7.36-14.07l10.3-2.67L359.48,367l-13.82,3-2.41-9.46a29.22,29.22,0,0,0,11.56-7.1A41.88,41.88,0,0,1,354,338.6l-12.81,4.55-.95-16a35.5,35.5,0,0,0,15.49-2.87l-2.78-12.51c-3.12,6.12-11.86,8.51-17.66,4.83L333,304l13.65-2.45-1.05-12.37c-4.95,7.64-16.5,10-24,4.85l10.8-16.81A40.73,40.73,0,0,0,366.47,270a56.68,56.68,0,0,1-15.3,8.46,9.38,9.38,0,0,1-1.44,12.31,13.54,13.54,0,0,1,13.49-2.15l-.07,7.75c-6.14,1.26-10.29,8.51-8.25,14.44l10-5.57-2.4-10,12-2.1-3.54-5.3,4.17-5.77-5.22,7.22a8,8,0,0,0-6.91-.55l.6,17.36c-5.81,1.14-9.6,7.21-10.09,13.11s1.57,11.68,3.6,17.24A36.28,36.28,0,0,1,375.87,335l6.06-8-11.47-.56-.35-6.44a33.58,33.58,0,0,1-15,5.48,19.37,19.37,0,0,0,2.07,11.77l-3.92.67L355,351l8.35,3.93a11,11,0,0,0,.57,9.09l1.59-2.36a20.88,20.88,0,0,1-3.74-11.53,10.49,10.49,0,0,0,9.59,1.38l.43,15.08a6.42,6.42,0,0,1-8.79-4.27c10.54,7.06,26.66,3.56,33.31-7.25" transform="translate(66.7 0.51)"/><path class="cls-14" d="M323.8,290.37a2.88,2.88,0,0,0-.79,1.73c0,.89.86,1.52,1.64,1.94,7.08,3.84,21.81.43,21.72-9.84,0-5.05-3.35-4.55-7.73-4.65C330.43,279.37,328.59,284.18,323.8,290.37Z" transform="translate(66.7 0.51)"/><path class="cls-15" d="M377.11,337.9a3.65,3.65,0,0,0-.79,2.07,3,3,0,0,0,1.64,2.31c7.07,4.58,21.8.52,21.72-11.72,0-6-3.36-5.43-7.74-5.54C383.74,324.8,381.89,330.54,377.11,337.9Z" transform="translate(66.7 0.51)"/><path class="cls-16" d="M379.27,274c-.35.16-.73.34-.84.67s.26,1,.67,1.37c3.73,3.64,13.69,5.5,15.61.34.94-2.54-1.25-3.1-4-4.21C385.57,270.08,383.48,272.05,379.27,274Z" transform="translate(66.7 0.51)"/><path class="cls-17" d="M333.18,310a2.59,2.59,0,0,0-1,1.38,2.37,2.37,0,0,0,1,2.06c5.35,4.81,18.78,4.67,20.79-4.49,1-4.51-2-4.71-5.75-5.66C341.14,301.51,338.57,305.44,333.18,310Z" transform="translate(66.7 0.51)"/><path class="cls-18" d="M370.53,308.68a2.11,2.11,0,0,0-.08-1.47,2,2,0,0,0-1.87-.67c-6.42.14-15.6,8.1-11.78,15,1.89,3.39,4.05,1.77,7.18.15C369.86,318.64,369.4,314.69,370.53,308.68Z" transform="translate(66.7 0.51)"/><path class="cls-19" d="M362.67,358.4a2.28,2.28,0,0,0,.45-1.47c-.12-.71-.85-1.12-1.52-1.38-6.07-2.33-17.51,2-16.35,10.19.57,4,3.17,3.29,6.69,2.9C358.53,367.92,359.49,363.87,362.67,358.4Z" transform="translate(66.7 0.51)"/><path class="cls-20" d="M339.07,336.25a2.62,2.62,0,0,0-.53,1.46,2.15,2.15,0,0,0,1.1,1.64c4.75,3.24,14.63.36,14.57-8.3,0-4.27-2.25-3.84-5.19-3.93C343.52,327,342.28,331,339.07,336.25Z" transform="translate(66.7 0.51)"/><path class="cls-14" d="M352.92,381a2.84,2.84,0,0,0-1.74.79,2.63,2.63,0,0,0,0,2.54C354,391.87,367.29,399,374,391.2c3.3-3.84.47-5.64-2.77-8.59C365.14,377.08,360.59,379.49,352.92,381Z" transform="translate(66.7 0.51)"/><path class="cls-21" d="M379.74,311.82a2.36,2.36,0,0,0-.92-1.12A2,2,0,0,0,377,311c-4.92,2.86-7.43,13-.43,16.72,3.44,1.84,4.18-.35,5.68-2.95C385,319.86,382.37,317,379.74,311.82Z" transform="translate(66.7 0.51)"/><path class="cls-22" d="M382,367.44a2.51,2.51,0,0,0-.62,1.48,2.19,2.19,0,0,0,1.28,1.66c5.54,3.28,17.06.37,17-8.41,0-4.32-2.63-3.89-6.05-4C387.2,358,385.76,362.15,382,367.44Z" transform="translate(66.7 0.51)"/><path class="cls-23" d="M364.94,413.12a3.49,3.49,0,0,0-.53,1.73,2.6,2.6,0,0,0,1.09,1.94c4.74,3.84,14.59.43,14.53-9.83,0-5-2.24-4.55-5.17-4.65C369.37,402.13,368.14,406.94,364.94,413.12Z" transform="translate(66.7 0.51)"/><path class="cls-24" d="M379.68,284.82a4.79,4.79,0,0,0-2.24-.6,3.44,3.44,0,0,0-2.48,1.35c-4.84,5.78-.27,17.55,12.93,17.28,6.49-.14,5.8-2.79,5.87-6.32C393.89,289.93,387.68,288.54,379.68,284.82Z" transform="translate(66.7 0.51)"/><text class="cls-25" transform="translate(72.82 29.39)"><tspan class="cls-26">	</tspan><tspan x="137.57" y="0">O</tspan><tspan class="cls-27" x="161.86" y="0">C</tspan><tspan x="183.41" y="0">TOBER 13TH </tspan><tspan class="cls-28" x="422.03" y="0">2</tspan><tspan x="438.63" y="0">0</tspan><tspan class="cls-28" x="459.91" y="0">2</tspan><tspan x="476.51" y="0">0 </tspan><tspan x="164.85" y="39.6">N</tspan><tspan class="cls-29" x="186.36" y="39.6">E</tspan><tspan x="204.35" y="39.6">W YORK, NY</tspan></text><path class="cls-30" d="M365,354a4.41,4.41,0,0,0,1.7,1.33,3.16,3.16,0,0,0,2.64-.4c6.3-3.66,6.7-16.13-4.77-20.44-5.65-2.12-6,.58-7.4,3.81C354.67,344.31,359.51,347.74,365,354Z" transform="translate(66.7 0.51)"/></g><g id="Layer_4" data-name="Layer 4"><text class="cls-31" x="66.7" y="0.51"><tspan x="96.24" y="368.39">THE </tspan><tspan x="106.25" y="425.99">WILD </tspan><tspan x="106.48" y="483.59">BUNCH </tspan><tspan x="94.53" y="541.19">PR</tspan><tspan class="cls-32" x="151.17" y="541.19">E</tspan><tspan x="178.77" y="541.19">SENTS</tspan></text><text class="cls-33" transform="translate(82.66 739.47)">N<tspan class="cls-34" x="32.6" y="0">A</tspan><tspan x="61.4" y="0">TURAL WINE </tspan><tspan class="cls-35" x="433.45" y="0">F</tspan><tspan x="455.1" y="0">AIR</tspan></text><path class="cls-1" d="M-4.14,260.67c1.81,1.87,4.55,2.46,7.15,2.6a28.12,28.12,0,0,0,13.88-2.86c10.94-5.42-4.38-17.89-11.22-19.26C-4.78,239.06-11.16,253.38-4.14,260.67Z" transform="translate(66.7 0.51)"/></g></svg>